<mxfile host="app.diagrams.net" agent="Mozilla/5.0 (Windows NT 10.0; Win64; x64) AppleWebKit/537.36 (KHTML, like Gecko) Chrome/138.0.0.0 Safari/537.36" version="28.0.7" pages="2">
  <diagram name="mnist-train" id="XROeWO3g0NZ_PiaLbZFy">
    <mxGraphModel dx="1293" dy="990" grid="1" gridSize="10" guides="1" tooltips="1" connect="1" arrows="1" fold="1" page="1" pageScale="1" pageWidth="850" pageHeight="1100" math="1" shadow="0">
      <root>
        <mxCell id="0" />
        <mxCell id="1" parent="0" />
        <mxCell id="gt3O8JD9paIEhUvHFo7x-1" value="" style="group" vertex="1" connectable="0" parent="1">
          <mxGeometry x="45" y="70" width="744.3299999999999" height="652" as="geometry" />
        </mxCell>
        <mxCell id="iDNPMrGMSo4_kKESPYXg-8" style="edgeStyle=orthogonalEdgeStyle;rounded=0;orthogonalLoop=1;jettySize=auto;html=1;entryX=0;entryY=0.25;entryDx=0;entryDy=0;exitX=1;exitY=0.5;exitDx=0;exitDy=0;fillColor=#f8cecc;strokeColor=#b85450;" parent="gt3O8JD9paIEhUvHFo7x-1" source="iDNPMrGMSo4_kKESPYXg-1" target="iDNPMrGMSo4_kKESPYXg-2" edge="1">
          <mxGeometry relative="1" as="geometry">
            <mxPoint x="205" y="10" as="sourcePoint" />
            <Array as="points">
              <mxPoint x="215" y="120" />
              <mxPoint x="215" y="30" />
              <mxPoint x="275" y="30" />
            </Array>
          </mxGeometry>
        </mxCell>
        <mxCell id="iDNPMrGMSo4_kKESPYXg-1" value="MNIST Training Dataset" style="rounded=0;whiteSpace=wrap;html=1;fillColor=#eeeeee;strokeColor=#36393d;direction=south;" parent="gt3O8JD9paIEhUvHFo7x-1" vertex="1">
          <mxGeometry x="115" y="90" width="60" height="60" as="geometry" />
        </mxCell>
        <mxCell id="iDNPMrGMSo4_kKESPYXg-2" value="PCA&lt;div&gt;Encoding&lt;/div&gt;" style="shape=trapezoid;perimeter=trapezoidPerimeter;whiteSpace=wrap;html=1;fixedSize=1;rotation=90;fillColor=#d5e8d4;strokeColor=#82b366;" parent="gt3O8JD9paIEhUvHFo7x-1" vertex="1">
          <mxGeometry x="225" y="88" width="90" height="30" as="geometry" />
        </mxCell>
        <mxCell id="iDNPMrGMSo4_kKESPYXg-7" value="PCA&lt;div&gt;Decoding&lt;/div&gt;" style="shape=trapezoid;perimeter=trapezoidPerimeter;whiteSpace=wrap;html=1;fixedSize=1;rotation=-90;fillColor=#d5e8d4;strokeColor=#82b366;" parent="gt3O8JD9paIEhUvHFo7x-1" vertex="1">
          <mxGeometry x="335" y="90" width="90" height="30" as="geometry" />
        </mxCell>
        <mxCell id="uu8hmrMseBfyl5tihcX9-2" value="784" style="text;html=1;align=center;verticalAlign=middle;resizable=0;points=[];autosize=1;strokeColor=none;fillColor=none;" parent="gt3O8JD9paIEhUvHFo7x-1" vertex="1">
          <mxGeometry x="215" y="88" width="40" height="30" as="geometry" />
        </mxCell>
        <mxCell id="uu8hmrMseBfyl5tihcX9-5" value="20" style="text;html=1;align=center;verticalAlign=middle;resizable=0;points=[];autosize=1;strokeColor=none;fillColor=none;" parent="gt3O8JD9paIEhUvHFo7x-1" vertex="1">
          <mxGeometry x="280" y="88" width="40" height="30" as="geometry" />
        </mxCell>
        <mxCell id="uu8hmrMseBfyl5tihcX9-6" value="20" style="text;html=1;align=center;verticalAlign=middle;resizable=0;points=[];autosize=1;strokeColor=none;fillColor=none;" parent="gt3O8JD9paIEhUvHFo7x-1" vertex="1">
          <mxGeometry x="330" y="88" width="40" height="30" as="geometry" />
        </mxCell>
        <mxCell id="uu8hmrMseBfyl5tihcX9-9" value="784" style="text;html=1;align=center;verticalAlign=middle;resizable=0;points=[];autosize=1;strokeColor=none;fillColor=none;" parent="gt3O8JD9paIEhUvHFo7x-1" vertex="1">
          <mxGeometry x="395" y="88" width="40" height="30" as="geometry" />
        </mxCell>
        <mxCell id="uu8hmrMseBfyl5tihcX9-22" style="edgeStyle=orthogonalEdgeStyle;rounded=0;orthogonalLoop=1;jettySize=auto;html=1;exitX=1;exitY=0.5;exitDx=0;exitDy=0;" parent="gt3O8JD9paIEhUvHFo7x-1" source="uu8hmrMseBfyl5tihcX9-14" edge="1">
          <mxGeometry relative="1" as="geometry">
            <mxPoint x="495" y="240.1428571428571" as="targetPoint" />
          </mxGeometry>
        </mxCell>
        <mxCell id="uu8hmrMseBfyl5tihcX9-14" value="MNIST&lt;div&gt;DNN&lt;/div&gt;" style="rounded=0;whiteSpace=wrap;html=1;fillColor=#dae8fc;strokeColor=#6c8ebf;" parent="gt3O8JD9paIEhUvHFo7x-1" vertex="1">
          <mxGeometry x="385" y="220" width="60" height="40" as="geometry" />
        </mxCell>
        <mxCell id="uu8hmrMseBfyl5tihcX9-21" style="edgeStyle=orthogonalEdgeStyle;rounded=0;orthogonalLoop=1;jettySize=auto;html=1;exitX=0.5;exitY=1;exitDx=0;exitDy=0;fillColor=#f8cecc;strokeColor=#CC0000;" parent="gt3O8JD9paIEhUvHFo7x-1" source="iDNPMrGMSo4_kKESPYXg-1" edge="1">
          <mxGeometry relative="1" as="geometry">
            <mxPoint x="415" y="220" as="targetPoint" />
            <Array as="points">
              <mxPoint x="145" y="180" />
              <mxPoint x="415" y="180" />
            </Array>
          </mxGeometry>
        </mxCell>
        <mxCell id="uu8hmrMseBfyl5tihcX9-23" value="97% accuracy" style="text;html=1;align=center;verticalAlign=middle;resizable=0;points=[];autosize=1;strokeColor=none;fillColor=none;" parent="gt3O8JD9paIEhUvHFo7x-1" vertex="1">
          <mxGeometry x="455" y="210" width="100" height="30" as="geometry" />
        </mxCell>
        <mxCell id="vKkYvrCnoo0cKNNgm6EX-2" value="&lt;font style=&quot;color: rgb(204, 0, 0);&quot;&gt;Train PCA&amp;nbsp;&lt;/font&gt;" style="text;html=1;align=center;verticalAlign=middle;resizable=0;points=[];autosize=1;strokeColor=none;fillColor=none;" parent="gt3O8JD9paIEhUvHFo7x-1" vertex="1">
          <mxGeometry x="280" width="80" height="30" as="geometry" />
        </mxCell>
        <mxCell id="vKkYvrCnoo0cKNNgm6EX-3" value="&lt;i&gt;&lt;font style=&quot;color: rgb(204, 0, 0);&quot;&gt;Train MNIST DNN&lt;/font&gt;&lt;/i&gt;" style="text;html=1;align=center;verticalAlign=middle;resizable=0;points=[];autosize=1;strokeColor=none;fillColor=none;" parent="gt3O8JD9paIEhUvHFo7x-1" vertex="1">
          <mxGeometry x="260" y="150" width="120" height="30" as="geometry" />
        </mxCell>
        <mxCell id="X49Vzy6Vr_1fYL4z1RSQ-11" value="Exploitation" style="text;html=1;align=center;verticalAlign=middle;resizable=0;points=[];autosize=1;strokeColor=none;fillColor=none;" parent="gt3O8JD9paIEhUvHFo7x-1" vertex="1">
          <mxGeometry y="280" width="90" height="30" as="geometry" />
        </mxCell>
        <mxCell id="sCFTrJq4_meSi-AOqO2O-1" value="Training" style="text;html=1;align=center;verticalAlign=middle;resizable=0;points=[];autosize=1;strokeColor=none;fillColor=none;" parent="gt3O8JD9paIEhUvHFo7x-1" vertex="1">
          <mxGeometry x="10" y="105" width="70" height="30" as="geometry" />
        </mxCell>
        <mxCell id="sCFTrJq4_meSi-AOqO2O-3" style="edgeStyle=orthogonalEdgeStyle;rounded=0;orthogonalLoop=1;jettySize=auto;html=1;exitX=1;exitY=0.5;exitDx=0;exitDy=0;startArrow=classic;startFill=1;endArrow=none;endFill=0;fillColor=#f8cecc;strokeColor=#b85450;" parent="gt3O8JD9paIEhUvHFo7x-1" source="iDNPMrGMSo4_kKESPYXg-7" edge="1">
          <mxGeometry relative="1" as="geometry">
            <Array as="points">
              <mxPoint x="380" y="30" />
            </Array>
            <mxPoint x="275" y="30" as="targetPoint" />
          </mxGeometry>
        </mxCell>
        <mxCell id="sCFTrJq4_meSi-AOqO2O-7" style="edgeStyle=orthogonalEdgeStyle;rounded=0;orthogonalLoop=1;jettySize=auto;html=1;exitX=1;exitY=0.5;exitDx=0;exitDy=0;entryX=0;entryY=0.5;entryDx=0;entryDy=0;" parent="gt3O8JD9paIEhUvHFo7x-1" source="sCFTrJq4_meSi-AOqO2O-5" target="uu8hmrMseBfyl5tihcX9-14" edge="1">
          <mxGeometry relative="1" as="geometry">
            <mxPoint x="240" y="240" as="targetPoint" />
          </mxGeometry>
        </mxCell>
        <mxCell id="sCFTrJq4_meSi-AOqO2O-5" value="" style="shape=image;imageAspect=0;aspect=fixed;verticalLabelPosition=bottom;verticalAlign=top;image=data:image/png,iVBORw0KGgoAAAANSUhEUgAAAXIAAAFxCAYAAABusCOnAAAAAXNSR0IArs4c6QAAAARnQU1BAACxjwv8YQUAAAAJcEhZcwAAD2EAAA9hAag/p2kAAA29SURBVHhe7dxZT5yHsobRmHkwg8FgY1to+yr//9ckkaI4sRWjgMHMY9McWrukc1tfSeakOGtJ0X5vWjRN78ffVb346aefHh7/A6CpqfhfAJoScoDmhBygOSEHaE7IAZoTcoDmhBygOSEHaE7IAZoTcoDmhBygOSEHaE7IAZoTcoDmhBygOSEHaE7IAZoTcoDmhBygOSEHaE7IAZoTcoDmhBygOSEHaO7F438P/538f/fixeTrMEzlNRPT09OxfqzRaBQr7+Fh+P8lqp9D5XXj8TgW/JcncoDmhBygOSEHaE7IAZoTcoDmhBygOSEHaE7IAZoTcoDmhBygOSEHaE7IAZoTcoDmXD98pirXBWdmZmLlVV4zUX3dUM/x+uH9/X2svJubm1h5riz24YkcoDkhB2hOyAGaE3KA5oQcoDkhB2hOyAGaE3KA5oQcoDkhB2hOyAGaE3KA5hzNamBqavi/t4uLi7HyZmdnY+WtrKzEGmZ+fj5WXuUQWOVzmJubi5V3fHwca5jr6+tYeVdXV7Hynuo1lYNeE5XveOW4WeU1HXgiB2hOyAGaE3KA5oQcoDkhB2hOyAGaE3KA5oQcoDkhB2hOyAGaE3KA5oQcoDlHs4oqR35mZmZiDbO0tBQrb3V1NVbeq1evYuVVjlJNVF5XObRV+Rwqh5XOz89jDXN2dhYrr3KgazQaxcqrHM26uLiINUzleFjld6oc9bq7u4v17+WJHKA5IQdoTsgBmhNygOaEHKA5IQdoTsgBmhNygOaEHKA5IQdoTsgBmhNygOYczXpUOYA1PT0dK69ywGliZ2cnVl7l0Nba2lqsvIWFhVjDbGxsxMqrvL/Z2dlYeZeXl7HyKge9Jio/6+joKFZe5TjXyclJrLzKz5n49u1brLzKUa+nOh42UTm+VuWJHKA5IQdoTsgBmhNygOaEHKA5IQdoTsgBmhNygOaEHKA5IQdoTsgBmhNygOae3dGsygGsymGlmZmZWHmvX7+ONczW1lasvHfv3sXKqxz1Wl9fjzXMy5cvY+UtLy/H+rFub29j5VW+dxOV11UObe3t7cXKOzg4iJV3enoaa5g///wzVl7lqFflb1t5zVPzRA7QnJADNCfkAM0JOUBzQg7QnJADNCfkAM0JOUBzQg7QnJADNCfkAM0JOUBzQg7Q3LO7fjg9PR0rr3LJsHIxcWNjI9YwlUuGHz9+jJW3trYWK696kbDysx4ehn9Vr6+vY+WNRqNYeZXv0MTCwkKsvMrncHR0FCuvcjFxf38/1jB//PFHrLzKz7q7u4uVNx6PY/17eSIHaE7IAZoTcoDmhBygOSEHaE7IAZoTcoDmhBygOSEHaE7IAZoTcoDmhByguWd3NOvFi8mvNMzc3FysvMXFxVh5r1+/jjVM5QBW5WctLS3Fyqu8ZqLydzo7O4uVVzma9VSH1yZWVlZi5VW+rzc3N7Hy/v7771h5X79+jTXMt2/fYuX9888/sfLOz89jPS+eyAGaE3KA5oQcoDkhB2hOyAGaE3KA5oQcoDkhB2hOyAGaE3KA5oQcoDkhB2jO0axHs7OzsfLW1tZi5b1//z7WMG/fvo2Vt7m5GStvYWEhVl71WNTp6WmsvNFoFCvv6uoqVl7laNbUVO2ZqPKZV757lc+hcmDq06dPsYapfB8ODw9j5R0fH8fKe3j49yfSEzlAc0IO0JyQAzQn5ADNCTlAc0IO0JyQAzQn5ADNCTlAc0IO0JyQAzQn5ADNPbujWRXz8/Ox8t68eRMrr3L8amJnZydW3urqaqy8ubm5WHnj8TjWMJXjRdfX17HyKn/bylGqynubqLy/yhGnu7u7WHmXl5ex8vb392MNU3ld5Tv0VMfanponcoDmhBygOSEHaE7IAZoTcoDmhBygOSEHaE7IAZoTcoDmhBygOSEHaE7IAZoTcoDmXD98tLCwECvv/fv3sfJ2d3djDbO9vR0rb2ZmJta/09HRUay8paWlWHmVz25qavjzTfX6YeV6ZOU1lfdX+Rvd3t7GGubLly+x8irXDy8uLmLlVX+nypXKKk/kAM0JOUBzQg7QnJADNCfkAM0JOUBzQg7QnJADNCfkAM0JOUBzQg7QnJADNOdo1qPV1dVYeVtbW7HyPn78GGuYt2/fxspbXl6OlVc58vP9+/dYP17lc1hbW4uVNz09HSvv6uoq1jB3d3ex8ioHsPb392PlVY5SnZ+fxxpmb28vVt7l5WWsvMr7q/yNJu7v72P9eJ7IAZoTcoDmhBygOSEHaE7IAZoTcoDmhBygOSEHaE7IAZoTcoDmhBygOSEHaM7RrEevXr2KlbexsRErb3d3N9YwlddVjkVVjjEdHBzEGmZ9fT1W3uvXr2PlbW5uxsqbm5uLlVc9rFQ5tnV4eBgr7/Pnz7HyTk5OYuVVj2ZVDnSdnZ3Fyru4uIiVd3t7G2uY0WgUK288HscaxhM5QHNCDtCckAM0J+QAzQk5QHNCDtCckAM0J+QAzQk5QHNCDtCckAM0J+QAzTma9ahyAGt1dTVW3ocPH2INs7W1FSvv7du3sfIuLy9j5VUPCi0vL8fKW1lZiZX35s2bWHmV91b57CYqB7BOT09j5R0dHcXKq7y36tGsyoGuyu9U+eyqB9Hu7+9j/XieyAGaE3KA5oQcoDkhB2hOyAGaE3KA5oQcoDkhB2hOyAGaE3KA5oQcoDkhB2jO0axHa2trsfI2Nzdj5VUOWU1sb2/Hyqv8Tjc3N7HyRqNRrGFmZ2dj5e3u7sbKW19fj5W3tLQUK6/y2U3s7e3Fyjs7O4uVd3x8HCvv4OAgVl7lvU1cXFzEyvv27VusvMrRrOp3/OHh6dLqiRygOSEHaE7IAZoTcoDmhBygOSEHaE7IAZoTcoDmhBygOSEHaE7IAZoTcoDmhBygOdcPH62srMTKq7zm3bt3sYapXE2sXPA7OTmJlVe9DLexsRErb2dnJ1be1tZWrLzxeBwr7+7uLtYw+/v7sfIqlxYrV/++fPkSK+/y8jLWMN+/f4+Vd3V1FSuvcmXR9UMAfjghB2hOyAGaE3KA5oQcoDkhB2hOyAGaE3KA5oQcoDkhB2hOyAGaE3KA5p7d0azp6elYecvLy7HyKkepPnz4EGuYyoGpyudwfX0dK6/ycyYqh8AqB7DW19dj5VU+h7Ozs1jDHB4exsqrHGy7vb2Nlffrr7/Gytvb24s1TOWoV+V4WOW4WfUg2lPyRA7QnJADNCfkAM0JOUBzQg7QnJADNCfkAM0JOUBzQg7QnJADNCfkAM0JOUBzz+5o1tTU8H+bFhcXY+W9evUqVt729nasYSo/a2ZmJlbeixeTr8Mwa2trsYbZ3d2Nlffy5ctYeaPRKFZe5YDT/f19rGEuLi5i5VWOvJ2cnMTK++WXX2Llff78OdYwlaNeT/Wa6t/24eHp0uqJHKA5IQdoTsgBmhNygOaEHKA5IQdoTsgBmhNygOaEHKA5IQdoTsgBmhNygOae3dGsivn5+Vh5lUNWm5ubsYap/KyNjY1YeU/1cyZ+/vnnWHnj8ThW3vn5eay8m5ubWHnX19exhqm87uzsLFZe5ZjVp0+fYuVV3tvE5eVlrLzKZ1c5gFX53k1UXlc9tOWJHKA5IQdoTsgBmhNygOaEHKA5IQdoTsgBmhNygOaEHKA5IQdoTsgBmhNygOYczXo0MzMTK29paSlWXuUo1cTOzk6svMprKgew/vOf/8QapvL+KgeFKoeVbm9vY+VdXFzEGqZyZOr333+Plffbb7/Fyjs+Po6VVzk4NlH5O93d3cXKG41GsfKqh6yqr6vwRA7QnJADNCfkAM0JOUBzQg7QnJADNCfkAM0JOUBzQg7QnJADNCfkAM0JOUBzQg7QnOuHj6amhv97Njs7GytvfX091jCVC4OVS4vb29ux8ra2tmINs7a2FitvcXExVt7l5WWsvMpr9vf3Yw1zeHgYK+/r16+x8v76669Yeefn57HyKhcJJyqXAsfjcay8p7xI+JQ8kQM0J+QAzQk5QHNCDtCckAM0J+QAzQk5QHNCDtCckAM0J+QAzQk5QHNCDtCco1mPXryYfAzDTE9Px8pbXV2NNczGxkasvM3NzVh5Hz58iJVXPQQ2NzcXK+/4+DhW3vX1day829vbWHknJyexhjk4OIiVd3R0FCuv8v6qB7CeynM9gFXhiRygOSEHaE7IAZoTcoDmhBygOSEHaE7IAZoTcoDmhBygOSEHaE7IAZoTcoDmHM16QktLS7GGWVlZiZVXec3CwkKsvJmZmVjDVI6O3dzcxPqxzs/PY+VV39vp6WmsvMrPGo1GsX6sygG6Kkez/pcncoDmhBygOSEHaE7IAZoTcoDmhBygOSEHaE7IAZoTcoDmhBygOSEHaE7IAZpzNOsJzc/PxxpmcXExVl7lQNfd3V2svPF4HGuYyuGnypGkynGu29vbWHmVz27i/v4+Vl7lMNW//cDUc/ydnpIncoDmhBygOSEHaE7IAZoTcoDmhBygOSEHaE7IAZoTcoDmhBygOSEHaE7IAZoTcoDmXD98QpVLfBOVy3BTU8P/ja68v+r1w9FoFCvvqa4fVi8Zwv8VT+QAzQk5QHNCDtCckAM0J+QAzQk5QHNCDtCckAM0J+QAzQk5QHNCDtCckAM052gWQHOeyAGaE3KA5oQcoDkhB2hOyAGaE3KA5oQcoDkhB2hOyAGaE3KA5oQcoDkhB2jtp5/+BylDJtrg9xX/AAAAAElFTkSuQmCC;base64,iVBORw0KGgoAAAANSUhEUgAAAXIAAAFwCAYAAACl7PACAAAAAXNSR0IArs4c6QAAAARnQU1BAACxjwv8YQUAAAAJcEhZcwAAD2EAAA9hAag/p2kAAA2PSURBVHhe7dxLT1yH0obRcL/YzdUQg5zEySj//884I8dxFCMbsGww0NANfLROSd+0dknmpDhrSVHeSQvYkCd7VHM//PDD/cM/ADQ1H/8GoCkhB2hOyAGaE3KA5oQcoDkhB2hOyAGaE3KA5oQcoDkhB2hOyAGaE3KA5oQcoDkhB2hOyAGaE3KA5oQcoDkhB2hOyAGaE3KA5oQcoDkhB2hOyAGam3v45/4/k/91c3OzP4dhKp+ZWVhYiPV9TafTWHn398P/k6g+h8rn7u7uYsF/eCMHaE7IAZoTcoDmhBygOSEHaE7IAZoTcoDmhBygOSEHaE7IAZoTcoDmhBygOSEHaM71wyeqcl1wcXExVl7lMzPVzw31FK8f3t7exsq7vr6OlefKYh/eyAGaE3KA5oQcoDkhB2hOyAGaE3KA5oQcoDkhB2hOyAGaE3KA5oQcoDkhB2jO0awG5ueH//92bW0tVt7S0lKsvNFoFGuYlZWVWHmVQ2CV57C8vBwr7/Pnz7GGqRyzGo/HsfKurq5i5VU+UznoNVP5G68cN6t8pgNv5ADNCTlAc0IO0JyQAzQn5ADNCTlAc0IO0JyQAzQn5ADNCTlAc0IO0JyQAzTnaFZR5cjP4uJirGHW19dj5W1sbMTK297ejpVXOUo1U/lc5dBW5Tnc3d3Fyru4uIg1zPn5eay8L1++xMqbTqex8ipHs6rPoXIIrPIzVY56TSaTWP9e3sgBmhNygOaEHKA5IQdoTsgBmhNygOaEHKA5IQdoTsgBmhNygOaEHKA5IQdoztGsB5UDWAsLC7HyKgecZg4ODmLlra6uxsrb2tqKlVf5OjM7Ozux8irf39LSUqy8y8vLWHnV51D5WicnJ7HyKse5zs7OYuVVvs5M5WeqHPV6rONhM/f3j5dWb+QAzQk5QHNCDtCckAM0J+QAzQk5QHNCDtCckAM0J+QAzQk5QHNCDtCckAM09+SOZlUOYFUOKy0uLsbK293djTXM/v5+rLzKoa3KUa/KIauZ0WgUK+/Zs2exvq+bm5tYeZW/u5nK8bWLi4tYeR8+fIiVd3x8HCuvejTr3bt3sfK+fv0aK6/yu6185rF5IwdoTsgBmhNygOaEHKA5IQdoTsgBmhNygOaEHKA5IQdoTsgBmhNygOaEHKA5IQdo7sldP6xck6tcMqxcTNze3o41zOHhYay8X3/9NVZe5fph9SJh9VkMdXV1FStvOp3Gyqv8Dc2srq7Gyru/H/6f7Onpaay8o6OjWHmVi4kzb9++jZX38ePHWHmTySRWXuV5PzZv5ADNCTlAc0IO0JyQAzQn5ADNCTlAc0IO0JyQAzQn5ADNCTlAc0IO0JyQAzT35I5mVaysrMTKW1tbi5X34sWLWMO8fv06Vt7u7m6svPX19Vh51aNZ8/PD3yHOz89j5Y3H41h5lQNYlWNtM6PRKFbe8vJyrLzKc/jnn39i5VUObc2cnJzEyqsczfr27Vusp8UbOUBzQg7QnJADNCfkAM0JOUBzQg7QnJADNCfkAM0JOUBzQg7QnJADNCfkAM09uaNZc3OzH2mYpaWlWHmbm5ux8g4PD2MN8+OPP8bKqxzNWl1djZVXeXYzlQNYd3d3sfIuLy9j5VWOZlVVnvnGxkasvKurq1h5ld/Rn3/+GWuYytf6/PlzrLwvX77Eyru///cn0hs5QHNCDtCckAM0J+QAzQk5QHNCDtCckAM0J+QAzQk5QHNCDtCckAM0J+QAzT25o1kVKysrsfL29/dj5VWOX81Ujm1VDitVD2BVVI4X3dzcxMpbXl6Olbe1tRUrr3Kca6byt1c5HlZ5dpVDW58+fYo1zPHxcay8yt/Q2dlZrLzpdBrr38sbOUBzQg7QnJADNCfkAM0JOUBzQg7QnJADNCfkAM0JOUBzQg7QnJADNCfkAM0JOUBzrh8+WF1djZVXuUj4888/xxpmb28vVt7i4mKs72t+vvYuULlct7a2Fivv5cuXsfLm5mb/WQxTvX5YuWR4e3sbK288HsfKOz09jZU3mUxiDfP+/ftYeZVLhhcXF7HyKpcjZ+7vHy+t3sgBmhNygOaEHKA5IQdoTsgBmhNygOaEHKA5IQdoTsgBmhNygOaEHKA5IQdoztGsBxsbG7HyKoesqkezKoefRqNRrLzKkZ+vX7/G+v4ODg5i5W1ubsbKqxwcqxxjmqkcZLq6uoqV9/Hjx1h5lcNm1edwdHQUK69yqKzy/VUPgVWOm1V5IwdoTsgBmhNygOaEHKA5IQdoTsgBmhNygOaEHKA5IQdoTsgBmhNygOaEHKA5R7MebG9vx8rb2dmJlVc9mvXq1atYeZWfaTwex8o7Pj6ONUzl+b148SJW3u7ubqy85eXlWHmV41czlcNPJycnsfL++uuvWHmVg2jVo1mVA13n5+ex8irPu/q7nU6nsfLu7u5iDeONHKA5IQdoTsgBmhNygOaEHKA5IQdoTsgBmhNygOaEHKA5IQdoTsgBmhNygOYczXpQOeC0sbERK69y/Gpmb28vVt7Lly9j5T3mQaHnz5/Hytvc3IyVt7+/Hyuv8r1VDjjNnJ6exsqrHLOqfJ3KZyp/QzOVo1mfP3+OlVf5PU0mk1jD3N7exvr+vJEDNCfkAM0JOUBzQg7QnJADNCfkAM0JOUBzQg7QnJADNCfkAM0JOUBzQg7QnKNZDyrHmLa3t2PlVQ5ZzVQOP21tbcXKqxzAmk6nsYZZWVmJlffTTz/Fyqs8h/X19Vh54/E41jBHR0ex8s7OzmLlVY5SHR8fx8qrfG8zV1dXsfJOTk5i5VW+v+rf+P3946XVGzlAc0IO0JyQAzQn5ADNCTlAc0IO0JyQAzQn5ADNCTlAc0IO0JyQAzQn5ADNCTlAc64fPhiNRrHyKp85PDyMNcze3l6svOfPn8fKe8zLcLu7u7HyKs+v8nUqV+sqlyNnPn78GCvv+vo6Vl7ld/v333/Hyru4uIg1zNevX2PlVS4mVr4/1w8B+O6EHKA5IQdoTsgBmhNygOaEHKA5IQdoTsgBmhNygOaEHKA5IQdoTsgBmntyR7MWFhZi5T179ixW3vr6eqy8V69exRpme3s7Vl7lOVSOMVW+zszBwUGsvP39/Vh5m5ubsfIqz6Fy9Gnm9PQ0Vl7l73UymcTK++OPP2LlHR0dxRrm/Pw8Vl7l91R5DpXPPDZv5ADNCTlAc0IO0JyQAzQn5ADNCTlAc0IO0JyQAzQn5ADNCTlAc0IO0JyQAzTnaNaD1dXVWHlbW1ux8vb29mINUzmatbS0FCtvfn74/9crR6lmfvnll1h5o9EoVl7l4FHlANZ0Oo01zOXlZay8yt9r5SjVmzdvYuW9f/8+1jCV39PNzU2svMpnbm9vYw1zf/94afVGDtCckAM0J+QAzQk5QHNCDtCckAM0J+QAzQk5QHNCDtCckAM0J+QAzQk5QHNP7mhWxcrKSqy8yiGrnZ2dWMNUPlf5/iqf2d3djTXM77//HiuvcoTo7OwsVt719XWsvMrxq5nxeBwr79u3b7HyKses3r17FyuvcpxrpvL8Ks+ucgDr7u4u1jCVz1UPbXkjB2hOyAGaE3KA5oQcoDkhB2hOyAGaE3KA5oQcoDkhB2hOyAGaE3KA5oQcoDlHsx4sLi7GyltfX4+VVzlKNXNwcBArr/KZra2tWHm//fZbrGEODw9j5VWOEFUOK93c3MTKqxyymqkc9Xr79m2svDdv3sTKe6yDYzOV39NkMomVN51OY+VVD1lVP1fhjRygOSEHaE7IAZoTcoDmhBygOSEHaE7IAZoTcoDmhBygOSEHaE7IAZoTcoDmhBygOdcPH8zPD///2dLSUqy8zc3NWMO8fv06Vl7l0uL+/n6svMpnZirPYm1tLVbe5eVlrLzKZz59+hRrmJOTk1h5Hz58iJX3/v37WHmVi46Vi4QzlUuBlWuYj3mR8DF5IwdoTsgBmhNygOaEHKA5IQdoTsgBmhNygOaEHKA5IQdoTsgBmhNygOaEHKA5R7MezM3NHsMwCwsLsfI2NjZiDbOzsxMrb3d3N1beq1evYuVVf6bV1dVYeV++fImVNx6PY+Xd3NzEyqt8bzOVo1mnp6ex8s7OzmLlVQ9gPZanegCrwhs5QHNCDtCckAM0J+QAzQk5QHNCDtCckAM0J+QAzQk5QHNCDtCckAM0J+QAzTma9YjW19djDTMajWLlVT5TOWS1uLgYa5jK0bHr6+tY39e3b99i5VW/t8oxq8ohsNvb21jfV+UAXZWjWf/PGzlAc0IO0JyQAzQn5ADNCTlAc0IO0JyQAzQn5ADNCTlAc0IO0JyQAzQn5ADNOZr1iFZWVmINUzm2tba2FitvMpnEyru7u4s1TOXIVOVI0vz88HeVynOofGamcsyqcpjq335g6in+TI/JGzlAc0IO0JyQAzQn5ADNCTlAc0IO0JyQAzQn5ADNCTlAc0IO0JyQAzQn5ADNCTlAc64fPqKFhYVYw1Quw1Wu/lW+v+r1w+l0Giuvcu2u8jNVLxnCf4s3coDmhBygOSEHaE7IAZoTcoDmhBygOSEHaE7IAZoTcoDmhBygOSEHaE7IAZpzNAugOW/kAM0JOUBzQg7QnJADNCfkAM0JOUBzQg7QnJADNCfkAM0JOUBzQg7QnJADtPbDD/8HgVsg2MZ6T3EAAAAASUVORK5CYII=;" parent="gt3O8JD9paIEhUvHFo7x-1" vertex="1">
          <mxGeometry x="159.67000000000002" y="220" width="40.11" height="40" as="geometry" />
        </mxCell>
        <mxCell id="sCFTrJq4_meSi-AOqO2O-29" value="" style="shape=image;imageAspect=0;aspect=fixed;verticalLabelPosition=bottom;verticalAlign=top;image=data:image/png,iVBORw0KGgoAAAANSUhEUgAAAXIAAAFwCAYAAACl7PACAAAAAXNSR0IArs4c6QAAAARnQU1BAACxjwv8YQUAAAAJcEhZcwAAD2EAAA9hAag/p2kAAA2PSURBVHhe7dxLT1yH0obRcL/YzdUQg5zEySj//884I8dxFCMbsGww0NANfLROSd+0dknmpDhrSVHeSQvYkCd7VHM//PDD/cM/ADQ1H/8GoCkhB2hOyAGaE3KA5oQcoDkhB2hOyAGaE3KA5oQcoDkhB2hOyAGaE3KA5oQcoDkhB2hOyAGaE3KA5oQcoDkhB2hOyAGaE3KA5oQcoDkhB2hOyAGam3v45/4/k/91c3OzP4dhKp+ZWVhYiPV9TafTWHn398P/k6g+h8rn7u7uYsF/eCMHaE7IAZoTcoDmhBygOSEHaE7IAZoTcoDmhBygOSEHaE7IAZoTcoDmhBygOSEHaM71wyeqcl1wcXExVl7lMzPVzw31FK8f3t7exsq7vr6OlefKYh/eyAGaE3KA5oQcoDkhB2hOyAGaE3KA5oQcoDkhB2hOyAGaE3KA5oQcoDkhB2jO0awG5ueH//92bW0tVt7S0lKsvNFoFGuYlZWVWHmVQ2CV57C8vBwr7/Pnz7GGqRyzGo/HsfKurq5i5VU+UznoNVP5G68cN6t8pgNv5ADNCTlAc0IO0JyQAzQn5ADNCTlAc0IO0JyQAzQn5ADNCTlAc0IO0JyQAzTnaFZR5cjP4uJirGHW19dj5W1sbMTK297ejpVXOUo1U/lc5dBW5Tnc3d3Fyru4uIg1zPn5eay8L1++xMqbTqex8ipHs6rPoXIIrPIzVY56TSaTWP9e3sgBmhNygOaEHKA5IQdoTsgBmhNygOaEHKA5IQdoTsgBmhNygOaEHKA5IQdoztGsB5UDWAsLC7HyKgecZg4ODmLlra6uxsrb2tqKlVf5OjM7Ozux8irf39LSUqy8y8vLWHnV51D5WicnJ7HyKse5zs7OYuVVvs5M5WeqHPV6rONhM/f3j5dWb+QAzQk5QHNCDtCckAM0J+QAzQk5QHNCDtCckAM0J+QAzQk5QHNCDtCckAM09+SOZlUOYFUOKy0uLsbK293djTXM/v5+rLzKoa3KUa/KIauZ0WgUK+/Zs2exvq+bm5tYeZW/u5nK8bWLi4tYeR8+fIiVd3x8HCuvejTr3bt3sfK+fv0aK6/yu6185rF5IwdoTsgBmhNygOaEHKA5IQdoTsgBmhNygOaEHKA5IQdoTsgBmhNygOaEHKA5IQdo7sldP6xck6tcMqxcTNze3o41zOHhYay8X3/9NVZe5fph9SJh9VkMdXV1FStvOp3Gyqv8Dc2srq7Gyru/H/6f7Onpaay8o6OjWHmVi4kzb9++jZX38ePHWHmTySRWXuV5PzZv5ADNCTlAc0IO0JyQAzQn5ADNCTlAc0IO0JyQAzQn5ADNCTlAc0IO0JyQAzT35I5mVaysrMTKW1tbi5X34sWLWMO8fv06Vt7u7m6svPX19Vh51aNZ8/PD3yHOz89j5Y3H41h5lQNYlWNtM6PRKFbe8vJyrLzKc/jnn39i5VUObc2cnJzEyqsczfr27Vusp8UbOUBzQg7QnJADNCfkAM0JOUBzQg7QnJADNCfkAM0JOUBzQg7QnJADNCfkAM09uaNZc3OzH2mYpaWlWHmbm5ux8g4PD2MN8+OPP8bKqxzNWl1djZVXeXYzlQNYd3d3sfIuLy9j5VWOZlVVnvnGxkasvKurq1h5ld/Rn3/+GWuYytf6/PlzrLwvX77Eyru///cn0hs5QHNCDtCckAM0J+QAzQk5QHNCDtCckAM0J+QAzQk5QHNCDtCckAM0J+QAzT25o1kVKysrsfL29/dj5VWOX81Ujm1VDitVD2BVVI4X3dzcxMpbXl6Olbe1tRUrr3Kca6byt1c5HlZ5dpVDW58+fYo1zPHxcay8yt/Q2dlZrLzpdBrr38sbOUBzQg7QnJADNCfkAM0JOUBzQg7QnJADNCfkAM0JOUBzQg7QnJADNCfkAM0JOUBzrh8+WF1djZVXuUj4888/xxpmb28vVt7i4mKs72t+vvYuULlct7a2Fivv5cuXsfLm5mb/WQxTvX5YuWR4e3sbK288HsfKOz09jZU3mUxiDfP+/ftYeZVLhhcXF7HyKpcjZ+7vHy+t3sgBmhNygOaEHKA5IQdoTsgBmhNygOaEHKA5IQdoTsgBmhNygOaEHKA5IQdoztGsBxsbG7HyKoesqkezKoefRqNRrLzKkZ+vX7/G+v4ODg5i5W1ubsbKqxwcqxxjmqkcZLq6uoqV9/Hjx1h5lcNm1edwdHQUK69yqKzy/VUPgVWOm1V5IwdoTsgBmhNygOaEHKA5IQdoTsgBmhNygOaEHKA5IQdoTsgBmhNygOaEHKA5R7MebG9vx8rb2dmJlVc9mvXq1atYeZWfaTwex8o7Pj6ONUzl+b148SJW3u7ubqy85eXlWHmV41czlcNPJycnsfL++uuvWHmVg2jVo1mVA13n5+ex8irPu/q7nU6nsfLu7u5iDeONHKA5IQdoTsgBmhNygOaEHKA5IQdoTsgBmhNygOaEHKA5IQdoTsgBmhNygOYczXpQOeC0sbERK69y/Gpmb28vVt7Lly9j5T3mQaHnz5/Hytvc3IyVt7+/Hyuv8r1VDjjNnJ6exsqrHLOqfJ3KZyp/QzOVo1mfP3+OlVf5PU0mk1jD3N7exvr+vJEDNCfkAM0JOUBzQg7QnJADNCfkAM0JOUBzQg7QnJADNCfkAM0JOUBzQg7QnKNZDyrHmLa3t2PlVQ5ZzVQOP21tbcXKqxzAmk6nsYZZWVmJlffTTz/Fyqs8h/X19Vh54/E41jBHR0ex8s7OzmLlVY5SHR8fx8qrfG8zV1dXsfJOTk5i5VW+v+rf+P3946XVGzlAc0IO0JyQAzQn5ADNCTlAc0IO0JyQAzQn5ADNCTlAc0IO0JyQAzQn5ADNCTlAc64fPhiNRrHyKp85PDyMNcze3l6svOfPn8fKe8zLcLu7u7HyKs+v8nUqV+sqlyNnPn78GCvv+vo6Vl7ld/v333/Hyru4uIg1zNevX2PlVS4mVr4/1w8B+O6EHKA5IQdoTsgBmhNygOaEHKA5IQdoTsgBmhNygOaEHKA5IQdoTsgBmntyR7MWFhZi5T179ixW3vr6eqy8V69exRpme3s7Vl7lOVSOMVW+zszBwUGsvP39/Vh5m5ubsfIqz6Fy9Gnm9PQ0Vl7l73UymcTK++OPP2LlHR0dxRrm/Pw8Vl7l91R5DpXPPDZv5ADNCTlAc0IO0JyQAzQn5ADNCTlAc0IO0JyQAzQn5ADNCTlAc0IO0JyQAzTnaNaD1dXVWHlbW1ux8vb29mINUzmatbS0FCtvfn74/9crR6lmfvnll1h5o9EoVl7l4FHlANZ0Oo01zOXlZay8yt9r5SjVmzdvYuW9f/8+1jCV39PNzU2svMpnbm9vYw1zf/94afVGDtCckAM0J+QAzQk5QHNCDtCckAM0J+QAzQk5QHNCDtCckAM0J+QAzQk5QHNP7mhWxcrKSqy8yiGrnZ2dWMNUPlf5/iqf2d3djTXM77//HiuvcoTo7OwsVt719XWsvMrxq5nxeBwr79u3b7HyKses3r17FyuvcpxrpvL8Ks+ucgDr7u4u1jCVz1UPbXkjB2hOyAGaE3KA5oQcoDkhB2hOyAGaE3KA5oQcoDkhB2hOyAGaE3KA5oQcoDlHsx4sLi7GyltfX4+VVzlKNXNwcBArr/KZra2tWHm//fZbrGEODw9j5VWOEFUOK93c3MTKqxyymqkc9Xr79m2svDdv3sTKe6yDYzOV39NkMomVN51OY+VVD1lVP1fhjRygOSEHaE7IAZoTcoDmhBygOSEHaE7IAZoTcoDmhBygOSEHaE7IAZoTcoDmhBygOdcPH8zPD///2dLSUqy8zc3NWMO8fv06Vl7l0uL+/n6svMpnZirPYm1tLVbe5eVlrLzKZz59+hRrmJOTk1h5Hz58iJX3/v37WHmVi46Vi4QzlUuBlWuYj3mR8DF5IwdoTsgBmhNygOaEHKA5IQdoTsgBmhNygOaEHKA5IQdoTsgBmhNygOaEHKA5R7MezM3NHsMwCwsLsfI2NjZiDbOzsxMrb3d3N1beq1evYuVVf6bV1dVYeV++fImVNx6PY+Xd3NzEyqt8bzOVo1mnp6ex8s7OzmLlVQ9gPZanegCrwhs5QHNCDtCckAM0J+QAzQk5QHNCDtCckAM0J+QAzQk5QHNCDtCckAM0J+QAzTma9YjW19djDTMajWLlVT5TOWS1uLgYa5jK0bHr6+tY39e3b99i5VW/t8oxq8ohsNvb21jfV+UAXZWjWf/PGzlAc0IO0JyQAzQn5ADNCTlAc0IO0JyQAzQn5ADNCTlAc0IO0JyQAzQn5ADNOZr1iFZWVmINUzm2tba2FitvMpnEyru7u4s1TOXIVOVI0vz88HeVynOofGamcsyqcpjq335g6in+TI/JGzlAc0IO0JyQAzQn5ADNCTlAc0IO0JyQAzQn5ADNCTlAc0IO0JyQAzQn5ADNCTlAc64fPqKFhYVYw1Quw1Wu/lW+v+r1w+l0Giuvcu2u8jNVLxnCf4s3coDmhBygOSEHaE7IAZoTcoDmhBygOSEHaE7IAZoTcoDmhBygOSEHaE7IAZpzNAugOW/kAM0JOUBzQg7QnJADNCfkAM0JOUBzQg7QnJADNCfkAM0JOUBzQg7QnJADtPbDD/8HgVsg2MZ6T3EAAAAASUVORK5CYII=;" parent="gt3O8JD9paIEhUvHFo7x-1" vertex="1">
          <mxGeometry x="165" y="225" width="40.22" height="40" as="geometry" />
        </mxCell>
        <mxCell id="sCFTrJq4_meSi-AOqO2O-30" value="" style="shape=image;imageAspect=0;aspect=fixed;verticalLabelPosition=bottom;verticalAlign=top;image=data:image/png,iVBORw0KGgoAAAANSUhEUgAAAXIAAAFwCAYAAACl7PACAAAAAXNSR0IArs4c6QAAAARnQU1BAACxjwv8YQUAAAAJcEhZcwAAD2EAAA9hAag/p2kAAA2PSURBVHhe7dxLT1yH0obRcL/YzdUQg5zEySj//884I8dxFCMbsGww0NANfLROSd+0dknmpDhrSVHeSQvYkCd7VHM//PDD/cM/ADQ1H/8GoCkhB2hOyAGaE3KA5oQcoDkhB2hOyAGaE3KA5oQcoDkhB2hOyAGaE3KA5oQcoDkhB2hOyAGaE3KA5oQcoDkhB2hOyAGaE3KA5oQcoDkhB2hOyAGam3v45/4/k/91c3OzP4dhKp+ZWVhYiPV9TafTWHn398P/k6g+h8rn7u7uYsF/eCMHaE7IAZoTcoDmhBygOSEHaE7IAZoTcoDmhBygOSEHaE7IAZoTcoDmhBygOSEHaM71wyeqcl1wcXExVl7lMzPVzw31FK8f3t7exsq7vr6OlefKYh/eyAGaE3KA5oQcoDkhB2hOyAGaE3KA5oQcoDkhB2hOyAGaE3KA5oQcoDkhB2jO0awG5ueH//92bW0tVt7S0lKsvNFoFGuYlZWVWHmVQ2CV57C8vBwr7/Pnz7GGqRyzGo/HsfKurq5i5VU+UznoNVP5G68cN6t8pgNv5ADNCTlAc0IO0JyQAzQn5ADNCTlAc0IO0JyQAzQn5ADNCTlAc0IO0JyQAzTnaFZR5cjP4uJirGHW19dj5W1sbMTK297ejpVXOUo1U/lc5dBW5Tnc3d3Fyru4uIg1zPn5eay8L1++xMqbTqex8ipHs6rPoXIIrPIzVY56TSaTWP9e3sgBmhNygOaEHKA5IQdoTsgBmhNygOaEHKA5IQdoTsgBmhNygOaEHKA5IQdoztGsB5UDWAsLC7HyKgecZg4ODmLlra6uxsrb2tqKlVf5OjM7Ozux8irf39LSUqy8y8vLWHnV51D5WicnJ7HyKse5zs7OYuVVvs5M5WeqHPV6rONhM/f3j5dWb+QAzQk5QHNCDtCckAM0J+QAzQk5QHNCDtCckAM0J+QAzQk5QHNCDtCckAM09+SOZlUOYFUOKy0uLsbK293djTXM/v5+rLzKoa3KUa/KIauZ0WgUK+/Zs2exvq+bm5tYeZW/u5nK8bWLi4tYeR8+fIiVd3x8HCuvejTr3bt3sfK+fv0aK6/yu6185rF5IwdoTsgBmhNygOaEHKA5IQdoTsgBmhNygOaEHKA5IQdoTsgBmhNygOaEHKA5IQdo7sldP6xck6tcMqxcTNze3o41zOHhYay8X3/9NVZe5fph9SJh9VkMdXV1FStvOp3Gyqv8Dc2srq7Gyru/H/6f7Onpaay8o6OjWHmVi4kzb9++jZX38ePHWHmTySRWXuV5PzZv5ADNCTlAc0IO0JyQAzQn5ADNCTlAc0IO0JyQAzQn5ADNCTlAc0IO0JyQAzT35I5mVaysrMTKW1tbi5X34sWLWMO8fv06Vt7u7m6svPX19Vh51aNZ8/PD3yHOz89j5Y3H41h5lQNYlWNtM6PRKFbe8vJyrLzKc/jnn39i5VUObc2cnJzEyqsczfr27Vusp8UbOUBzQg7QnJADNCfkAM0JOUBzQg7QnJADNCfkAM0JOUBzQg7QnJADNCfkAM09uaNZc3OzH2mYpaWlWHmbm5ux8g4PD2MN8+OPP8bKqxzNWl1djZVXeXYzlQNYd3d3sfIuLy9j5VWOZlVVnvnGxkasvKurq1h5ld/Rn3/+GWuYytf6/PlzrLwvX77Eyru///cn0hs5QHNCDtCckAM0J+QAzQk5QHNCDtCckAM0J+QAzQk5QHNCDtCckAM0J+QAzT25o1kVKysrsfL29/dj5VWOX81Ujm1VDitVD2BVVI4X3dzcxMpbXl6Olbe1tRUrr3Kca6byt1c5HlZ5dpVDW58+fYo1zPHxcay8yt/Q2dlZrLzpdBrr38sbOUBzQg7QnJADNCfkAM0JOUBzQg7QnJADNCfkAM0JOUBzQg7QnJADNCfkAM0JOUBzrh8+WF1djZVXuUj4888/xxpmb28vVt7i4mKs72t+vvYuULlct7a2Fivv5cuXsfLm5mb/WQxTvX5YuWR4e3sbK288HsfKOz09jZU3mUxiDfP+/ftYeZVLhhcXF7HyKpcjZ+7vHy+t3sgBmhNygOaEHKA5IQdoTsgBmhNygOaEHKA5IQdoTsgBmhNygOaEHKA5IQdoztGsBxsbG7HyKoesqkezKoefRqNRrLzKkZ+vX7/G+v4ODg5i5W1ubsbKqxwcqxxjmqkcZLq6uoqV9/Hjx1h5lcNm1edwdHQUK69yqKzy/VUPgVWOm1V5IwdoTsgBmhNygOaEHKA5IQdoTsgBmhNygOaEHKA5IQdoTsgBmhNygOaEHKA5R7MebG9vx8rb2dmJlVc9mvXq1atYeZWfaTwex8o7Pj6ONUzl+b148SJW3u7ubqy85eXlWHmV41czlcNPJycnsfL++uuvWHmVg2jVo1mVA13n5+ex8irPu/q7nU6nsfLu7u5iDeONHKA5IQdoTsgBmhNygOaEHKA5IQdoTsgBmhNygOaEHKA5IQdoTsgBmhNygOYczXpQOeC0sbERK69y/Gpmb28vVt7Lly9j5T3mQaHnz5/Hytvc3IyVt7+/Hyuv8r1VDjjNnJ6exsqrHLOqfJ3KZyp/QzOVo1mfP3+OlVf5PU0mk1jD3N7exvr+vJEDNCfkAM0JOUBzQg7QnJADNCfkAM0JOUBzQg7QnJADNCfkAM0JOUBzQg7QnKNZDyrHmLa3t2PlVQ5ZzVQOP21tbcXKqxzAmk6nsYZZWVmJlffTTz/Fyqs8h/X19Vh54/E41jBHR0ex8s7OzmLlVY5SHR8fx8qrfG8zV1dXsfJOTk5i5VW+v+rf+P3946XVGzlAc0IO0JyQAzQn5ADNCTlAc0IO0JyQAzQn5ADNCTlAc0IO0JyQAzQn5ADNCTlAc64fPhiNRrHyKp85PDyMNcze3l6svOfPn8fKe8zLcLu7u7HyKs+v8nUqV+sqlyNnPn78GCvv+vo6Vl7ld/v333/Hyru4uIg1zNevX2PlVS4mVr4/1w8B+O6EHKA5IQdoTsgBmhNygOaEHKA5IQdoTsgBmhNygOaEHKA5IQdoTsgBmntyR7MWFhZi5T179ixW3vr6eqy8V69exRpme3s7Vl7lOVSOMVW+zszBwUGsvP39/Vh5m5ubsfIqz6Fy9Gnm9PQ0Vl7l73UymcTK++OPP2LlHR0dxRrm/Pw8Vl7l91R5DpXPPDZv5ADNCTlAc0IO0JyQAzQn5ADNCTlAc0IO0JyQAzQn5ADNCTlAc0IO0JyQAzTnaNaD1dXVWHlbW1ux8vb29mINUzmatbS0FCtvfn74/9crR6lmfvnll1h5o9EoVl7l4FHlANZ0Oo01zOXlZay8yt9r5SjVmzdvYuW9f/8+1jCV39PNzU2svMpnbm9vYw1zf/94afVGDtCckAM0J+QAzQk5QHNCDtCckAM0J+QAzQk5QHNCDtCckAM0J+QAzQk5QHNP7mhWxcrKSqy8yiGrnZ2dWMNUPlf5/iqf2d3djTXM77//HiuvcoTo7OwsVt719XWsvMrxq5nxeBwr79u3b7HyKses3r17FyuvcpxrpvL8Ks+ucgDr7u4u1jCVz1UPbXkjB2hOyAGaE3KA5oQcoDkhB2hOyAGaE3KA5oQcoDkhB2hOyAGaE3KA5oQcoDlHsx4sLi7GyltfX4+VVzlKNXNwcBArr/KZra2tWHm//fZbrGEODw9j5VWOEFUOK93c3MTKqxyymqkc9Xr79m2svDdv3sTKe6yDYzOV39NkMomVN51OY+VVD1lVP1fhjRygOSEHaE7IAZoTcoDmhBygOSEHaE7IAZoTcoDmhBygOSEHaE7IAZoTcoDmhBygOdcPH8zPD///2dLSUqy8zc3NWMO8fv06Vl7l0uL+/n6svMpnZirPYm1tLVbe5eVlrLzKZz59+hRrmJOTk1h5Hz58iJX3/v37WHmVi46Vi4QzlUuBlWuYj3mR8DF5IwdoTsgBmhNygOaEHKA5IQdoTsgBmhNygOaEHKA5IQdoTsgBmhNygOaEHKA5R7MezM3NHsMwCwsLsfI2NjZiDbOzsxMrb3d3N1beq1evYuVVf6bV1dVYeV++fImVNx6PY+Xd3NzEyqt8bzOVo1mnp6ex8s7OzmLlVQ9gPZanegCrwhs5QHNCDtCckAM0J+QAzQk5QHNCDtCckAM0J+QAzQk5QHNCDtCckAM0J+QAzTma9YjW19djDTMajWLlVT5TOWS1uLgYa5jK0bHr6+tY39e3b99i5VW/t8oxq8ohsNvb21jfV+UAXZWjWf/PGzlAc0IO0JyQAzQn5ADNCTlAc0IO0JyQAzQn5ADNCTlAc0IO0JyQAzQn5ADNOZr1iFZWVmINUzm2tba2FitvMpnEyru7u4s1TOXIVOVI0vz88HeVynOofGamcsyqcpjq335g6in+TI/JGzlAc0IO0JyQAzQn5ADNCTlAc0IO0JyQAzQn5ADNCTlAc0IO0JyQAzQn5ADNCTlAc64fPqKFhYVYw1Quw1Wu/lW+v+r1w+l0Giuvcu2u8jNVLxnCf4s3coDmhBygOSEHaE7IAZoTcoDmhBygOSEHaE7IAZoTcoDmhBygOSEHaE7IAZpzNAugOW/kAM0JOUBzQg7QnJADNCfkAM0JOUBzQg7QnJADNCfkAM0JOUBzQg7QnJADtPbDD/8HgVsg2MZ6T3EAAAAASUVORK5CYII=;" parent="gt3O8JD9paIEhUvHFo7x-1" vertex="1">
          <mxGeometry x="172" y="230" width="40.22" height="40" as="geometry" />
        </mxCell>
        <mxCell id="sCFTrJq4_meSi-AOqO2O-32" style="edgeStyle=orthogonalEdgeStyle;rounded=0;orthogonalLoop=1;jettySize=auto;html=1;exitX=1;exitY=0.5;exitDx=0;exitDy=0;" parent="gt3O8JD9paIEhUvHFo7x-1" source="sCFTrJq4_meSi-AOqO2O-33" edge="1">
          <mxGeometry relative="1" as="geometry">
            <mxPoint x="495" y="340.1428571428571" as="targetPoint" />
          </mxGeometry>
        </mxCell>
        <mxCell id="sCFTrJq4_meSi-AOqO2O-33" value="MNIST&amp;nbsp;&lt;div&gt;DNN&lt;/div&gt;" style="rounded=0;whiteSpace=wrap;html=1;fillColor=#dae8fc;strokeColor=#6c8ebf;" parent="gt3O8JD9paIEhUvHFo7x-1" vertex="1">
          <mxGeometry x="385" y="320" width="60" height="40" as="geometry" />
        </mxCell>
        <mxCell id="sCFTrJq4_meSi-AOqO2O-34" style="edgeStyle=orthogonalEdgeStyle;rounded=0;orthogonalLoop=1;jettySize=auto;html=1;exitX=0.5;exitY=0;exitDx=0;exitDy=0;entryX=0.5;entryY=0;entryDx=0;entryDy=0;" parent="gt3O8JD9paIEhUvHFo7x-1" source="sCFTrJq4_meSi-AOqO2O-35" target="sCFTrJq4_meSi-AOqO2O-37" edge="1">
          <mxGeometry relative="1" as="geometry" />
        </mxCell>
        <mxCell id="sCFTrJq4_meSi-AOqO2O-35" value="PCA&lt;div&gt;Encoding&lt;/div&gt;" style="shape=trapezoid;perimeter=trapezoidPerimeter;whiteSpace=wrap;html=1;fixedSize=1;rotation=90;fillColor=#d5e8d4;strokeColor=#82b366;" parent="gt3O8JD9paIEhUvHFo7x-1" vertex="1">
          <mxGeometry x="210" y="325" width="90" height="30" as="geometry" />
        </mxCell>
        <mxCell id="sCFTrJq4_meSi-AOqO2O-36" style="edgeStyle=orthogonalEdgeStyle;rounded=0;orthogonalLoop=1;jettySize=auto;html=1;exitX=0.5;exitY=1;exitDx=0;exitDy=0;entryX=0;entryY=0.5;entryDx=0;entryDy=0;" parent="gt3O8JD9paIEhUvHFo7x-1" source="sCFTrJq4_meSi-AOqO2O-37" target="sCFTrJq4_meSi-AOqO2O-33" edge="1">
          <mxGeometry relative="1" as="geometry" />
        </mxCell>
        <mxCell id="sCFTrJq4_meSi-AOqO2O-37" value="PCA&lt;div&gt;Decoding&lt;/div&gt;" style="shape=trapezoid;perimeter=trapezoidPerimeter;whiteSpace=wrap;html=1;fixedSize=1;rotation=-90;fillColor=#d5e8d4;strokeColor=#82b366;" parent="gt3O8JD9paIEhUvHFo7x-1" vertex="1">
          <mxGeometry x="275" y="325" width="90" height="30" as="geometry" />
        </mxCell>
        <mxCell id="sCFTrJq4_meSi-AOqO2O-38" value="97% accuracy" style="text;html=1;align=center;verticalAlign=middle;resizable=0;points=[];autosize=1;strokeColor=none;fillColor=none;" parent="gt3O8JD9paIEhUvHFo7x-1" vertex="1">
          <mxGeometry x="455" y="310" width="100" height="30" as="geometry" />
        </mxCell>
        <mxCell id="sCFTrJq4_meSi-AOqO2O-40" style="edgeStyle=orthogonalEdgeStyle;rounded=0;orthogonalLoop=1;jettySize=auto;html=1;exitX=1;exitY=0.5;exitDx=0;exitDy=0;entryX=0.5;entryY=1;entryDx=0;entryDy=0;" parent="gt3O8JD9paIEhUvHFo7x-1" source="sCFTrJq4_meSi-AOqO2O-41" target="sCFTrJq4_meSi-AOqO2O-35" edge="1">
          <mxGeometry relative="1" as="geometry" />
        </mxCell>
        <mxCell id="sCFTrJq4_meSi-AOqO2O-41" value="" style="shape=image;imageAspect=0;aspect=fixed;verticalLabelPosition=bottom;verticalAlign=top;image=data:image/png,iVBORw0KGgoAAAANSUhEUgAAAXIAAAFxCAYAAABusCOnAAAAAXNSR0IArs4c6QAAAARnQU1BAACxjwv8YQUAAAAJcEhZcwAAD2EAAA9hAag/p2kAAA29SURBVHhe7dxZT5yHsobRmHkwg8FgY1to+yr//9ckkaI4sRWjgMHMY9McWrukc1tfSeakOGtJ0X5vWjRN78ffVb346aefHh7/A6CpqfhfAJoScoDmhBygOSEHaE7IAZoTcoDmhBygOSEHaE7IAZoTcoDmhBygOSEHaE7IAZoTcoDmhBygOSEHaE7IAZoTcoDmhBygOSEHaE7IAZoTcoDmhBygOSEHaO7F438P/538f/fixeTrMEzlNRPT09OxfqzRaBQr7+Fh+P8lqp9D5XXj8TgW/JcncoDmhBygOSEHaE7IAZoTcoDmhBygOSEHaE7IAZoTcoDmhBygOSEHaE7IAZoTcoDmXD98pirXBWdmZmLlVV4zUX3dUM/x+uH9/X2svJubm1h5riz24YkcoDkhB2hOyAGaE3KA5oQcoDkhB2hOyAGaE3KA5oQcoDkhB2hOyAGaE3KA5hzNamBqavi/t4uLi7HyZmdnY+WtrKzEGmZ+fj5WXuUQWOVzmJubi5V3fHwca5jr6+tYeVdXV7Hynuo1lYNeE5XveOW4WeU1HXgiB2hOyAGaE3KA5oQcoDkhB2hOyAGaE3KA5oQcoDkhB2hOyAGaE3KA5oQcoDlHs4oqR35mZmZiDbO0tBQrb3V1NVbeq1evYuVVjlJNVF5XObRV+Rwqh5XOz89jDXN2dhYrr3KgazQaxcqrHM26uLiINUzleFjld6oc9bq7u4v17+WJHKA5IQdoTsgBmhNygOaEHKA5IQdoTsgBmhNygOaEHKA5IQdoTsgBmhNygOYczXpUOYA1PT0dK69ywGliZ2cnVl7l0Nba2lqsvIWFhVjDbGxsxMqrvL/Z2dlYeZeXl7HyKge9Jio/6+joKFZe5TjXyclJrLzKz5n49u1brLzKUa+nOh42UTm+VuWJHKA5IQdoTsgBmhNygOaEHKA5IQdoTsgBmhNygOaEHKA5IQdoTsgBmhNygOae3dGsygGsymGlmZmZWHmvX7+ONczW1lasvHfv3sXKqxz1Wl9fjzXMy5cvY+UtLy/H+rFub29j5VW+dxOV11UObe3t7cXKOzg4iJV3enoaa5g///wzVl7lqFflb1t5zVPzRA7QnJADNCfkAM0JOUBzQg7QnJADNCfkAM0JOUBzQg7QnJADNCfkAM0JOUBzQg7Q3LO7fjg9PR0rr3LJsHIxcWNjI9YwlUuGHz9+jJW3trYWK696kbDysx4ehn9Vr6+vY+WNRqNYeZXv0MTCwkKsvMrncHR0FCuvcjFxf38/1jB//PFHrLzKz7q7u4uVNx6PY/17eSIHaE7IAZoTcoDmhBygOSEHaE7IAZoTcoDmhBygOSEHaE7IAZoTcoDmhByguWd3NOvFi8mvNMzc3FysvMXFxVh5r1+/jjVM5QBW5WctLS3Fyqu8ZqLydzo7O4uVVzma9VSH1yZWVlZi5VW+rzc3N7Hy/v7771h5X79+jTXMt2/fYuX9888/sfLOz89jPS+eyAGaE3KA5oQcoDkhB2hOyAGaE3KA5oQcoDkhB2hOyAGaE3KA5oQcoDkhB2jO0axHs7OzsfLW1tZi5b1//z7WMG/fvo2Vt7m5GStvYWEhVl71WNTp6WmsvNFoFCvv6uoqVl7laNbUVO2ZqPKZV757lc+hcmDq06dPsYapfB8ODw9j5R0fH8fKe3j49yfSEzlAc0IO0JyQAzQn5ADNCTlAc0IO0JyQAzQn5ADNCTlAc0IO0JyQAzQn5ADNPbujWRXz8/Ox8t68eRMrr3L8amJnZydW3urqaqy8ubm5WHnj8TjWMJXjRdfX17HyKn/bylGqynubqLy/yhGnu7u7WHmXl5ex8vb392MNU3ld5Tv0VMfanponcoDmhBygOSEHaE7IAZoTcoDmhBygOSEHaE7IAZoTcoDmhBygOSEHaE7IAZoTcoDmXD98tLCwECvv/fv3sfJ2d3djDbO9vR0rb2ZmJta/09HRUay8paWlWHmVz25qavjzTfX6YeV6ZOU1lfdX+Rvd3t7GGubLly+x8irXDy8uLmLlVX+nypXKKk/kAM0JOUBzQg7QnJADNCfkAM0JOUBzQg7QnJADNCfkAM0JOUBzQg7QnJADNOdo1qPV1dVYeVtbW7HyPn78GGuYt2/fxspbXl6OlVc58vP9+/dYP17lc1hbW4uVNz09HSvv6uoq1jB3d3ex8ioHsPb392PlVY5SnZ+fxxpmb28vVt7l5WWsvMr7q/yNJu7v72P9eJ7IAZoTcoDmhBygOSEHaE7IAZoTcoDmhBygOSEHaE7IAZoTcoDmhBygOSEHaM7RrEevXr2KlbexsRErb3d3N9YwlddVjkVVjjEdHBzEGmZ9fT1W3uvXr2PlbW5uxsqbm5uLlVc9rFQ5tnV4eBgr7/Pnz7HyTk5OYuVVj2ZVDnSdnZ3Fyru4uIiVd3t7G2uY0WgUK288HscaxhM5QHNCDtCckAM0J+QAzQk5QHNCDtCckAM0J+QAzQk5QHNCDtCckAM0J+QAzTma9ahyAGt1dTVW3ocPH2INs7W1FSvv7du3sfIuLy9j5VUPCi0vL8fKW1lZiZX35s2bWHmV91b57CYqB7BOT09j5R0dHcXKq7y36tGsyoGuyu9U+eyqB9Hu7+9j/XieyAGaE3KA5oQcoDkhB2hOyAGaE3KA5oQcoDkhB2hOyAGaE3KA5oQcoDkhB2jO0axHa2trsfI2Nzdj5VUOWU1sb2/Hyqv8Tjc3N7HyRqNRrGFmZ2dj5e3u7sbKW19fj5W3tLQUK6/y2U3s7e3Fyjs7O4uVd3x8HCvv4OAgVl7lvU1cXFzEyvv27VusvMrRrOp3/OHh6dLqiRygOSEHaE7IAZoTcoDmhBygOSEHaE7IAZoTcoDmhBygOSEHaE7IAZoTcoDmhBygOdcPH62srMTKq7zm3bt3sYapXE2sXPA7OTmJlVe9DLexsRErb2dnJ1be1tZWrLzxeBwr7+7uLtYw+/v7sfIqlxYrV/++fPkSK+/y8jLWMN+/f4+Vd3V1FSuvcmXR9UMAfjghB2hOyAGaE3KA5oQcoDkhB2hOyAGaE3KA5oQcoDkhB2hOyAGaE3KA5p7d0azp6elYecvLy7HyKkepPnz4EGuYyoGpyudwfX0dK6/ycyYqh8AqB7DW19dj5VU+h7Ozs1jDHB4exsqrHGy7vb2Nlffrr7/Gytvb24s1TOWoV+V4WOW4WfUg2lPyRA7QnJADNCfkAM0JOUBzQg7QnJADNCfkAM0JOUBzQg7QnJADNCfkAM0JOUBzz+5o1tTU8H+bFhcXY+W9evUqVt729nasYSo/a2ZmJlbeixeTr8Mwa2trsYbZ3d2Nlffy5ctYeaPRKFZe5YDT/f19rGEuLi5i5VWOvJ2cnMTK++WXX2Llff78OdYwlaNeT/Wa6t/24eHp0uqJHKA5IQdoTsgBmhNygOaEHKA5IQdoTsgBmhNygOaEHKA5IQdoTsgBmhNygOae3dGsivn5+Vh5lUNWm5ubsYap/KyNjY1YeU/1cyZ+/vnnWHnj8ThW3vn5eay8m5ubWHnX19exhqm87uzsLFZe5ZjVp0+fYuVV3tvE5eVlrLzKZ1c5gFX53k1UXlc9tOWJHKA5IQdoTsgBmhNygOaEHKA5IQdoTsgBmhNygOaEHKA5IQdoTsgBmhNygOYczXo0MzMTK29paSlWXuUo1cTOzk6svMprKgew/vOf/8QapvL+KgeFKoeVbm9vY+VdXFzEGqZyZOr333+Plffbb7/Fyjs+Po6VVzk4NlH5O93d3cXKG41GsfKqh6yqr6vwRA7QnJADNCfkAM0JOUBzQg7QnJADNCfkAM0JOUBzQg7QnJADNCfkAM0JOUBzQg7QnOuHj6amhv97Njs7GytvfX091jCVC4OVS4vb29ux8ra2tmINs7a2FitvcXExVt7l5WWsvMpr9vf3Yw1zeHgYK+/r16+x8v76669Yeefn57HyKhcJJyqXAsfjcay8p7xI+JQ8kQM0J+QAzQk5QHNCDtCckAM0J+QAzQk5QHNCDtCckAM0J+QAzQk5QHNCDtCco1mPXryYfAzDTE9Px8pbXV2NNczGxkasvM3NzVh5Hz58iJVXPQQ2NzcXK+/4+DhW3vX1day829vbWHknJyexhjk4OIiVd3R0FCuv8v6qB7CeynM9gFXhiRygOSEHaE7IAZoTcoDmhBygOSEHaE7IAZoTcoDmhBygOSEHaE7IAZoTcoDmHM16QktLS7GGWVlZiZVXec3CwkKsvJmZmVjDVI6O3dzcxPqxzs/PY+VV39vp6WmsvMrPGo1GsX6sygG6Kkez/pcncoDmhBygOSEHaE7IAZoTcoDmhBygOSEHaE7IAZoTcoDmhBygOSEHaE7IAZpzNOsJzc/PxxpmcXExVl7lQNfd3V2svPF4HGuYyuGnypGkynGu29vbWHmVz27i/v4+Vl7lMNW//cDUc/ydnpIncoDmhBygOSEHaE7IAZoTcoDmhBygOSEHaE7IAZoTcoDmhBygOSEHaE7IAZoTcoDmXD98QpVLfBOVy3BTU8P/ja68v+r1w9FoFCvvqa4fVi8Zwv8VT+QAzQk5QHNCDtCckAM0J+QAzQk5QHNCDtCckAM0J+QAzQk5QHNCDtCckAM052gWQHOeyAGaE3KA5oQcoDkhB2hOyAGaE3KA5oQcoDkhB2hOyAGaE3KA5oQcoDkhB2jtp5/+BylDJtrg9xX/AAAAAElFTkSuQmCC;base64,iVBORw0KGgoAAAANSUhEUgAAAXIAAAFwCAYAAACl7PACAAAAAXNSR0IArs4c6QAAAARnQU1BAACxjwv8YQUAAAAJcEhZcwAAD2EAAA9hAag/p2kAAA2PSURBVHhe7dxLT1yH0obRcL/YzdUQg5zEySj//884I8dxFCMbsGww0NANfLROSd+0dknmpDhrSVHeSQvYkCd7VHM//PDD/cM/ADQ1H/8GoCkhB2hOyAGaE3KA5oQcoDkhB2hOyAGaE3KA5oQcoDkhB2hOyAGaE3KA5oQcoDkhB2hOyAGaE3KA5oQcoDkhB2hOyAGaE3KA5oQcoDkhB2hOyAGam3v45/4/k/91c3OzP4dhKp+ZWVhYiPV9TafTWHn398P/k6g+h8rn7u7uYsF/eCMHaE7IAZoTcoDmhBygOSEHaE7IAZoTcoDmhBygOSEHaE7IAZoTcoDmhBygOSEHaM71wyeqcl1wcXExVl7lMzPVzw31FK8f3t7exsq7vr6OlefKYh/eyAGaE3KA5oQcoDkhB2hOyAGaE3KA5oQcoDkhB2hOyAGaE3KA5oQcoDkhB2jO0awG5ueH//92bW0tVt7S0lKsvNFoFGuYlZWVWHmVQ2CV57C8vBwr7/Pnz7GGqRyzGo/HsfKurq5i5VU+UznoNVP5G68cN6t8pgNv5ADNCTlAc0IO0JyQAzQn5ADNCTlAc0IO0JyQAzQn5ADNCTlAc0IO0JyQAzTnaFZR5cjP4uJirGHW19dj5W1sbMTK297ejpVXOUo1U/lc5dBW5Tnc3d3Fyru4uIg1zPn5eay8L1++xMqbTqex8ipHs6rPoXIIrPIzVY56TSaTWP9e3sgBmhNygOaEHKA5IQdoTsgBmhNygOaEHKA5IQdoTsgBmhNygOaEHKA5IQdoztGsB5UDWAsLC7HyKgecZg4ODmLlra6uxsrb2tqKlVf5OjM7Ozux8irf39LSUqy8y8vLWHnV51D5WicnJ7HyKse5zs7OYuVVvs5M5WeqHPV6rONhM/f3j5dWb+QAzQk5QHNCDtCckAM0J+QAzQk5QHNCDtCckAM0J+QAzQk5QHNCDtCckAM09+SOZlUOYFUOKy0uLsbK293djTXM/v5+rLzKoa3KUa/KIauZ0WgUK+/Zs2exvq+bm5tYeZW/u5nK8bWLi4tYeR8+fIiVd3x8HCuvejTr3bt3sfK+fv0aK6/yu6185rF5IwdoTsgBmhNygOaEHKA5IQdoTsgBmhNygOaEHKA5IQdoTsgBmhNygOaEHKA5IQdo7sldP6xck6tcMqxcTNze3o41zOHhYay8X3/9NVZe5fph9SJh9VkMdXV1FStvOp3Gyqv8Dc2srq7Gyru/H/6f7Onpaay8o6OjWHmVi4kzb9++jZX38ePHWHmTySRWXuV5PzZv5ADNCTlAc0IO0JyQAzQn5ADNCTlAc0IO0JyQAzQn5ADNCTlAc0IO0JyQAzT35I5mVaysrMTKW1tbi5X34sWLWMO8fv06Vt7u7m6svPX19Vh51aNZ8/PD3yHOz89j5Y3H41h5lQNYlWNtM6PRKFbe8vJyrLzKc/jnn39i5VUObc2cnJzEyqsczfr27Vusp8UbOUBzQg7QnJADNCfkAM0JOUBzQg7QnJADNCfkAM0JOUBzQg7QnJADNCfkAM09uaNZc3OzH2mYpaWlWHmbm5ux8g4PD2MN8+OPP8bKqxzNWl1djZVXeXYzlQNYd3d3sfIuLy9j5VWOZlVVnvnGxkasvKurq1h5ld/Rn3/+GWuYytf6/PlzrLwvX77Eyru///cn0hs5QHNCDtCckAM0J+QAzQk5QHNCDtCckAM0J+QAzQk5QHNCDtCckAM0J+QAzT25o1kVKysrsfL29/dj5VWOX81Ujm1VDitVD2BVVI4X3dzcxMpbXl6Olbe1tRUrr3Kca6byt1c5HlZ5dpVDW58+fYo1zPHxcay8yt/Q2dlZrLzpdBrr38sbOUBzQg7QnJADNCfkAM0JOUBzQg7QnJADNCfkAM0JOUBzQg7QnJADNCfkAM0JOUBzrh8+WF1djZVXuUj4888/xxpmb28vVt7i4mKs72t+vvYuULlct7a2Fivv5cuXsfLm5mb/WQxTvX5YuWR4e3sbK288HsfKOz09jZU3mUxiDfP+/ftYeZVLhhcXF7HyKpcjZ+7vHy+t3sgBmhNygOaEHKA5IQdoTsgBmhNygOaEHKA5IQdoTsgBmhNygOaEHKA5IQdoztGsBxsbG7HyKoesqkezKoefRqNRrLzKkZ+vX7/G+v4ODg5i5W1ubsbKqxwcqxxjmqkcZLq6uoqV9/Hjx1h5lcNm1edwdHQUK69yqKzy/VUPgVWOm1V5IwdoTsgBmhNygOaEHKA5IQdoTsgBmhNygOaEHKA5IQdoTsgBmhNygOaEHKA5R7MebG9vx8rb2dmJlVc9mvXq1atYeZWfaTwex8o7Pj6ONUzl+b148SJW3u7ubqy85eXlWHmV41czlcNPJycnsfL++uuvWHmVg2jVo1mVA13n5+ex8irPu/q7nU6nsfLu7u5iDeONHKA5IQdoTsgBmhNygOaEHKA5IQdoTsgBmhNygOaEHKA5IQdoTsgBmhNygOYczXpQOeC0sbERK69y/Gpmb28vVt7Lly9j5T3mQaHnz5/Hytvc3IyVt7+/Hyuv8r1VDjjNnJ6exsqrHLOqfJ3KZyp/QzOVo1mfP3+OlVf5PU0mk1jD3N7exvr+vJEDNCfkAM0JOUBzQg7QnJADNCfkAM0JOUBzQg7QnJADNCfkAM0JOUBzQg7QnKNZDyrHmLa3t2PlVQ5ZzVQOP21tbcXKqxzAmk6nsYZZWVmJlffTTz/Fyqs8h/X19Vh54/E41jBHR0ex8s7OzmLlVY5SHR8fx8qrfG8zV1dXsfJOTk5i5VW+v+rf+P3946XVGzlAc0IO0JyQAzQn5ADNCTlAc0IO0JyQAzQn5ADNCTlAc0IO0JyQAzQn5ADNCTlAc64fPhiNRrHyKp85PDyMNcze3l6svOfPn8fKe8zLcLu7u7HyKs+v8nUqV+sqlyNnPn78GCvv+vo6Vl7ld/v333/Hyru4uIg1zNevX2PlVS4mVr4/1w8B+O6EHKA5IQdoTsgBmhNygOaEHKA5IQdoTsgBmhNygOaEHKA5IQdoTsgBmntyR7MWFhZi5T179ixW3vr6eqy8V69exRpme3s7Vl7lOVSOMVW+zszBwUGsvP39/Vh5m5ubsfIqz6Fy9Gnm9PQ0Vl7l73UymcTK++OPP2LlHR0dxRrm/Pw8Vl7l91R5DpXPPDZv5ADNCTlAc0IO0JyQAzQn5ADNCTlAc0IO0JyQAzQn5ADNCTlAc0IO0JyQAzTnaNaD1dXVWHlbW1ux8vb29mINUzmatbS0FCtvfn74/9crR6lmfvnll1h5o9EoVl7l4FHlANZ0Oo01zOXlZay8yt9r5SjVmzdvYuW9f/8+1jCV39PNzU2svMpnbm9vYw1zf/94afVGDtCckAM0J+QAzQk5QHNCDtCckAM0J+QAzQk5QHNCDtCckAM0J+QAzQk5QHNP7mhWxcrKSqy8yiGrnZ2dWMNUPlf5/iqf2d3djTXM77//HiuvcoTo7OwsVt719XWsvMrxq5nxeBwr79u3b7HyKses3r17FyuvcpxrpvL8Ks+ucgDr7u4u1jCVz1UPbXkjB2hOyAGaE3KA5oQcoDkhB2hOyAGaE3KA5oQcoDkhB2hOyAGaE3KA5oQcoDlHsx4sLi7GyltfX4+VVzlKNXNwcBArr/KZra2tWHm//fZbrGEODw9j5VWOEFUOK93c3MTKqxyymqkc9Xr79m2svDdv3sTKe6yDYzOV39NkMomVN51OY+VVD1lVP1fhjRygOSEHaE7IAZoTcoDmhBygOSEHaE7IAZoTcoDmhBygOSEHaE7IAZoTcoDmhBygOdcPH8zPD///2dLSUqy8zc3NWMO8fv06Vl7l0uL+/n6svMpnZirPYm1tLVbe5eVlrLzKZz59+hRrmJOTk1h5Hz58iJX3/v37WHmVi46Vi4QzlUuBlWuYj3mR8DF5IwdoTsgBmhNygOaEHKA5IQdoTsgBmhNygOaEHKA5IQdoTsgBmhNygOaEHKA5R7MezM3NHsMwCwsLsfI2NjZiDbOzsxMrb3d3N1beq1evYuVVf6bV1dVYeV++fImVNx6PY+Xd3NzEyqt8bzOVo1mnp6ex8s7OzmLlVQ9gPZanegCrwhs5QHNCDtCckAM0J+QAzQk5QHNCDtCckAM0J+QAzQk5QHNCDtCckAM0J+QAzTma9YjW19djDTMajWLlVT5TOWS1uLgYa5jK0bHr6+tY39e3b99i5VW/t8oxq8ohsNvb21jfV+UAXZWjWf/PGzlAc0IO0JyQAzQn5ADNCTlAc0IO0JyQAzQn5ADNCTlAc0IO0JyQAzQn5ADNOZr1iFZWVmINUzm2tba2FitvMpnEyru7u4s1TOXIVOVI0vz88HeVynOofGamcsyqcpjq335g6in+TI/JGzlAc0IO0JyQAzQn5ADNCTlAc0IO0JyQAzQn5ADNCTlAc0IO0JyQAzQn5ADNCTlAc64fPqKFhYVYw1Quw1Wu/lW+v+r1w+l0Giuvcu2u8jNVLxnCf4s3coDmhBygOSEHaE7IAZoTcoDmhBygOSEHaE7IAZoTcoDmhBygOSEHaE7IAZpzNAugOW/kAM0JOUBzQg7QnJADNCfkAM0JOUBzQg7QnJADNCfkAM0JOUBzQg7QnJADtPbDD/8HgVsg2MZ6T3EAAAAASUVORK5CYII=;" parent="gt3O8JD9paIEhUvHFo7x-1" vertex="1">
          <mxGeometry x="159.67000000000002" y="320" width="40.11" height="40" as="geometry" />
        </mxCell>
        <mxCell id="sCFTrJq4_meSi-AOqO2O-42" value="" style="shape=image;imageAspect=0;aspect=fixed;verticalLabelPosition=bottom;verticalAlign=top;image=data:image/png,iVBORw0KGgoAAAANSUhEUgAAAXIAAAFwCAYAAACl7PACAAAAAXNSR0IArs4c6QAAAARnQU1BAACxjwv8YQUAAAAJcEhZcwAAD2EAAA9hAag/p2kAAA2PSURBVHhe7dxLT1yH0obRcL/YzdUQg5zEySj//884I8dxFCMbsGww0NANfLROSd+0dknmpDhrSVHeSQvYkCd7VHM//PDD/cM/ADQ1H/8GoCkhB2hOyAGaE3KA5oQcoDkhB2hOyAGaE3KA5oQcoDkhB2hOyAGaE3KA5oQcoDkhB2hOyAGaE3KA5oQcoDkhB2hOyAGaE3KA5oQcoDkhB2hOyAGam3v45/4/k/91c3OzP4dhKp+ZWVhYiPV9TafTWHn398P/k6g+h8rn7u7uYsF/eCMHaE7IAZoTcoDmhBygOSEHaE7IAZoTcoDmhBygOSEHaE7IAZoTcoDmhBygOSEHaM71wyeqcl1wcXExVl7lMzPVzw31FK8f3t7exsq7vr6OlefKYh/eyAGaE3KA5oQcoDkhB2hOyAGaE3KA5oQcoDkhB2hOyAGaE3KA5oQcoDkhB2jO0awG5ueH//92bW0tVt7S0lKsvNFoFGuYlZWVWHmVQ2CV57C8vBwr7/Pnz7GGqRyzGo/HsfKurq5i5VU+UznoNVP5G68cN6t8pgNv5ADNCTlAc0IO0JyQAzQn5ADNCTlAc0IO0JyQAzQn5ADNCTlAc0IO0JyQAzTnaFZR5cjP4uJirGHW19dj5W1sbMTK297ejpVXOUo1U/lc5dBW5Tnc3d3Fyru4uIg1zPn5eay8L1++xMqbTqex8ipHs6rPoXIIrPIzVY56TSaTWP9e3sgBmhNygOaEHKA5IQdoTsgBmhNygOaEHKA5IQdoTsgBmhNygOaEHKA5IQdoztGsB5UDWAsLC7HyKgecZg4ODmLlra6uxsrb2tqKlVf5OjM7Ozux8irf39LSUqy8y8vLWHnV51D5WicnJ7HyKse5zs7OYuVVvs5M5WeqHPV6rONhM/f3j5dWb+QAzQk5QHNCDtCckAM0J+QAzQk5QHNCDtCckAM0J+QAzQk5QHNCDtCckAM09+SOZlUOYFUOKy0uLsbK293djTXM/v5+rLzKoa3KUa/KIauZ0WgUK+/Zs2exvq+bm5tYeZW/u5nK8bWLi4tYeR8+fIiVd3x8HCuvejTr3bt3sfK+fv0aK6/yu6185rF5IwdoTsgBmhNygOaEHKA5IQdoTsgBmhNygOaEHKA5IQdoTsgBmhNygOaEHKA5IQdo7sldP6xck6tcMqxcTNze3o41zOHhYay8X3/9NVZe5fph9SJh9VkMdXV1FStvOp3Gyqv8Dc2srq7Gyru/H/6f7Onpaay8o6OjWHmVi4kzb9++jZX38ePHWHmTySRWXuV5PzZv5ADNCTlAc0IO0JyQAzQn5ADNCTlAc0IO0JyQAzQn5ADNCTlAc0IO0JyQAzT35I5mVaysrMTKW1tbi5X34sWLWMO8fv06Vt7u7m6svPX19Vh51aNZ8/PD3yHOz89j5Y3H41h5lQNYlWNtM6PRKFbe8vJyrLzKc/jnn39i5VUObc2cnJzEyqsczfr27Vusp8UbOUBzQg7QnJADNCfkAM0JOUBzQg7QnJADNCfkAM0JOUBzQg7QnJADNCfkAM09uaNZc3OzH2mYpaWlWHmbm5ux8g4PD2MN8+OPP8bKqxzNWl1djZVXeXYzlQNYd3d3sfIuLy9j5VWOZlVVnvnGxkasvKurq1h5ld/Rn3/+GWuYytf6/PlzrLwvX77Eyru///cn0hs5QHNCDtCckAM0J+QAzQk5QHNCDtCckAM0J+QAzQk5QHNCDtCckAM0J+QAzT25o1kVKysrsfL29/dj5VWOX81Ujm1VDitVD2BVVI4X3dzcxMpbXl6Olbe1tRUrr3Kca6byt1c5HlZ5dpVDW58+fYo1zPHxcay8yt/Q2dlZrLzpdBrr38sbOUBzQg7QnJADNCfkAM0JOUBzQg7QnJADNCfkAM0JOUBzQg7QnJADNCfkAM0JOUBzrh8+WF1djZVXuUj4888/xxpmb28vVt7i4mKs72t+vvYuULlct7a2Fivv5cuXsfLm5mb/WQxTvX5YuWR4e3sbK288HsfKOz09jZU3mUxiDfP+/ftYeZVLhhcXF7HyKpcjZ+7vHy+t3sgBmhNygOaEHKA5IQdoTsgBmhNygOaEHKA5IQdoTsgBmhNygOaEHKA5IQdoztGsBxsbG7HyKoesqkezKoefRqNRrLzKkZ+vX7/G+v4ODg5i5W1ubsbKqxwcqxxjmqkcZLq6uoqV9/Hjx1h5lcNm1edwdHQUK69yqKzy/VUPgVWOm1V5IwdoTsgBmhNygOaEHKA5IQdoTsgBmhNygOaEHKA5IQdoTsgBmhNygOaEHKA5R7MebG9vx8rb2dmJlVc9mvXq1atYeZWfaTwex8o7Pj6ONUzl+b148SJW3u7ubqy85eXlWHmV41czlcNPJycnsfL++uuvWHmVg2jVo1mVA13n5+ex8irPu/q7nU6nsfLu7u5iDeONHKA5IQdoTsgBmhNygOaEHKA5IQdoTsgBmhNygOaEHKA5IQdoTsgBmhNygOYczXpQOeC0sbERK69y/Gpmb28vVt7Lly9j5T3mQaHnz5/Hytvc3IyVt7+/Hyuv8r1VDjjNnJ6exsqrHLOqfJ3KZyp/QzOVo1mfP3+OlVf5PU0mk1jD3N7exvr+vJEDNCfkAM0JOUBzQg7QnJADNCfkAM0JOUBzQg7QnJADNCfkAM0JOUBzQg7QnKNZDyrHmLa3t2PlVQ5ZzVQOP21tbcXKqxzAmk6nsYZZWVmJlffTTz/Fyqs8h/X19Vh54/E41jBHR0ex8s7OzmLlVY5SHR8fx8qrfG8zV1dXsfJOTk5i5VW+v+rf+P3946XVGzlAc0IO0JyQAzQn5ADNCTlAc0IO0JyQAzQn5ADNCTlAc0IO0JyQAzQn5ADNCTlAc64fPhiNRrHyKp85PDyMNcze3l6svOfPn8fKe8zLcLu7u7HyKs+v8nUqV+sqlyNnPn78GCvv+vo6Vl7ld/v333/Hyru4uIg1zNevX2PlVS4mVr4/1w8B+O6EHKA5IQdoTsgBmhNygOaEHKA5IQdoTsgBmhNygOaEHKA5IQdoTsgBmntyR7MWFhZi5T179ixW3vr6eqy8V69exRpme3s7Vl7lOVSOMVW+zszBwUGsvP39/Vh5m5ubsfIqz6Fy9Gnm9PQ0Vl7l73UymcTK++OPP2LlHR0dxRrm/Pw8Vl7l91R5DpXPPDZv5ADNCTlAc0IO0JyQAzQn5ADNCTlAc0IO0JyQAzQn5ADNCTlAc0IO0JyQAzTnaNaD1dXVWHlbW1ux8vb29mINUzmatbS0FCtvfn74/9crR6lmfvnll1h5o9EoVl7l4FHlANZ0Oo01zOXlZay8yt9r5SjVmzdvYuW9f/8+1jCV39PNzU2svMpnbm9vYw1zf/94afVGDtCckAM0J+QAzQk5QHNCDtCckAM0J+QAzQk5QHNCDtCckAM0J+QAzQk5QHNP7mhWxcrKSqy8yiGrnZ2dWMNUPlf5/iqf2d3djTXM77//HiuvcoTo7OwsVt719XWsvMrxq5nxeBwr79u3b7HyKses3r17FyuvcpxrpvL8Ks+ucgDr7u4u1jCVz1UPbXkjB2hOyAGaE3KA5oQcoDkhB2hOyAGaE3KA5oQcoDkhB2hOyAGaE3KA5oQcoDlHsx4sLi7GyltfX4+VVzlKNXNwcBArr/KZra2tWHm//fZbrGEODw9j5VWOEFUOK93c3MTKqxyymqkc9Xr79m2svDdv3sTKe6yDYzOV39NkMomVN51OY+VVD1lVP1fhjRygOSEHaE7IAZoTcoDmhBygOSEHaE7IAZoTcoDmhBygOSEHaE7IAZoTcoDmhBygOdcPH8zPD///2dLSUqy8zc3NWMO8fv06Vl7l0uL+/n6svMpnZirPYm1tLVbe5eVlrLzKZz59+hRrmJOTk1h5Hz58iJX3/v37WHmVi46Vi4QzlUuBlWuYj3mR8DF5IwdoTsgBmhNygOaEHKA5IQdoTsgBmhNygOaEHKA5IQdoTsgBmhNygOaEHKA5R7MezM3NHsMwCwsLsfI2NjZiDbOzsxMrb3d3N1beq1evYuVVf6bV1dVYeV++fImVNx6PY+Xd3NzEyqt8bzOVo1mnp6ex8s7OzmLlVQ9gPZanegCrwhs5QHNCDtCckAM0J+QAzQk5QHNCDtCckAM0J+QAzQk5QHNCDtCckAM0J+QAzTma9YjW19djDTMajWLlVT5TOWS1uLgYa5jK0bHr6+tY39e3b99i5VW/t8oxq8ohsNvb21jfV+UAXZWjWf/PGzlAc0IO0JyQAzQn5ADNCTlAc0IO0JyQAzQn5ADNCTlAc0IO0JyQAzQn5ADNOZr1iFZWVmINUzm2tba2FitvMpnEyru7u4s1TOXIVOVI0vz88HeVynOofGamcsyqcpjq335g6in+TI/JGzlAc0IO0JyQAzQn5ADNCTlAc0IO0JyQAzQn5ADNCTlAc0IO0JyQAzQn5ADNCTlAc64fPqKFhYVYw1Quw1Wu/lW+v+r1w+l0Giuvcu2u8jNVLxnCf4s3coDmhBygOSEHaE7IAZoTcoDmhBygOSEHaE7IAZoTcoDmhBygOSEHaE7IAZpzNAugOW/kAM0JOUBzQg7QnJADNCfkAM0JOUBzQg7QnJADNCfkAM0JOUBzQg7QnJADtPbDD/8HgVsg2MZ6T3EAAAAASUVORK5CYII=;" parent="gt3O8JD9paIEhUvHFo7x-1" vertex="1">
          <mxGeometry x="165" y="325" width="40.22" height="40" as="geometry" />
        </mxCell>
        <mxCell id="sCFTrJq4_meSi-AOqO2O-43" value="" style="shape=image;imageAspect=0;aspect=fixed;verticalLabelPosition=bottom;verticalAlign=top;image=data:image/png,iVBORw0KGgoAAAANSUhEUgAAAXIAAAFwCAYAAACl7PACAAAAAXNSR0IArs4c6QAAAARnQU1BAACxjwv8YQUAAAAJcEhZcwAAD2EAAA9hAag/p2kAAA2PSURBVHhe7dxLT1yH0obRcL/YzdUQg5zEySj//884I8dxFCMbsGww0NANfLROSd+0dknmpDhrSVHeSQvYkCd7VHM//PDD/cM/ADQ1H/8GoCkhB2hOyAGaE3KA5oQcoDkhB2hOyAGaE3KA5oQcoDkhB2hOyAGaE3KA5oQcoDkhB2hOyAGaE3KA5oQcoDkhB2hOyAGaE3KA5oQcoDkhB2hOyAGam3v45/4/k/91c3OzP4dhKp+ZWVhYiPV9TafTWHn398P/k6g+h8rn7u7uYsF/eCMHaE7IAZoTcoDmhBygOSEHaE7IAZoTcoDmhBygOSEHaE7IAZoTcoDmhBygOSEHaM71wyeqcl1wcXExVl7lMzPVzw31FK8f3t7exsq7vr6OlefKYh/eyAGaE3KA5oQcoDkhB2hOyAGaE3KA5oQcoDkhB2hOyAGaE3KA5oQcoDkhB2jO0awG5ueH//92bW0tVt7S0lKsvNFoFGuYlZWVWHmVQ2CV57C8vBwr7/Pnz7GGqRyzGo/HsfKurq5i5VU+UznoNVP5G68cN6t8pgNv5ADNCTlAc0IO0JyQAzQn5ADNCTlAc0IO0JyQAzQn5ADNCTlAc0IO0JyQAzTnaFZR5cjP4uJirGHW19dj5W1sbMTK297ejpVXOUo1U/lc5dBW5Tnc3d3Fyru4uIg1zPn5eay8L1++xMqbTqex8ipHs6rPoXIIrPIzVY56TSaTWP9e3sgBmhNygOaEHKA5IQdoTsgBmhNygOaEHKA5IQdoTsgBmhNygOaEHKA5IQdoztGsB5UDWAsLC7HyKgecZg4ODmLlra6uxsrb2tqKlVf5OjM7Ozux8irf39LSUqy8y8vLWHnV51D5WicnJ7HyKse5zs7OYuVVvs5M5WeqHPV6rONhM/f3j5dWb+QAzQk5QHNCDtCckAM0J+QAzQk5QHNCDtCckAM0J+QAzQk5QHNCDtCckAM09+SOZlUOYFUOKy0uLsbK293djTXM/v5+rLzKoa3KUa/KIauZ0WgUK+/Zs2exvq+bm5tYeZW/u5nK8bWLi4tYeR8+fIiVd3x8HCuvejTr3bt3sfK+fv0aK6/yu6185rF5IwdoTsgBmhNygOaEHKA5IQdoTsgBmhNygOaEHKA5IQdoTsgBmhNygOaEHKA5IQdo7sldP6xck6tcMqxcTNze3o41zOHhYay8X3/9NVZe5fph9SJh9VkMdXV1FStvOp3Gyqv8Dc2srq7Gyru/H/6f7Onpaay8o6OjWHmVi4kzb9++jZX38ePHWHmTySRWXuV5PzZv5ADNCTlAc0IO0JyQAzQn5ADNCTlAc0IO0JyQAzQn5ADNCTlAc0IO0JyQAzT35I5mVaysrMTKW1tbi5X34sWLWMO8fv06Vt7u7m6svPX19Vh51aNZ8/PD3yHOz89j5Y3H41h5lQNYlWNtM6PRKFbe8vJyrLzKc/jnn39i5VUObc2cnJzEyqsczfr27Vusp8UbOUBzQg7QnJADNCfkAM0JOUBzQg7QnJADNCfkAM0JOUBzQg7QnJADNCfkAM09uaNZc3OzH2mYpaWlWHmbm5ux8g4PD2MN8+OPP8bKqxzNWl1djZVXeXYzlQNYd3d3sfIuLy9j5VWOZlVVnvnGxkasvKurq1h5ld/Rn3/+GWuYytf6/PlzrLwvX77Eyru///cn0hs5QHNCDtCckAM0J+QAzQk5QHNCDtCckAM0J+QAzQk5QHNCDtCckAM0J+QAzT25o1kVKysrsfL29/dj5VWOX81Ujm1VDitVD2BVVI4X3dzcxMpbXl6Olbe1tRUrr3Kca6byt1c5HlZ5dpVDW58+fYo1zPHxcay8yt/Q2dlZrLzpdBrr38sbOUBzQg7QnJADNCfkAM0JOUBzQg7QnJADNCfkAM0JOUBzQg7QnJADNCfkAM0JOUBzrh8+WF1djZVXuUj4888/xxpmb28vVt7i4mKs72t+vvYuULlct7a2Fivv5cuXsfLm5mb/WQxTvX5YuWR4e3sbK288HsfKOz09jZU3mUxiDfP+/ftYeZVLhhcXF7HyKpcjZ+7vHy+t3sgBmhNygOaEHKA5IQdoTsgBmhNygOaEHKA5IQdoTsgBmhNygOaEHKA5IQdoztGsBxsbG7HyKoesqkezKoefRqNRrLzKkZ+vX7/G+v4ODg5i5W1ubsbKqxwcqxxjmqkcZLq6uoqV9/Hjx1h5lcNm1edwdHQUK69yqKzy/VUPgVWOm1V5IwdoTsgBmhNygOaEHKA5IQdoTsgBmhNygOaEHKA5IQdoTsgBmhNygOaEHKA5R7MebG9vx8rb2dmJlVc9mvXq1atYeZWfaTwex8o7Pj6ONUzl+b148SJW3u7ubqy85eXlWHmV41czlcNPJycnsfL++uuvWHmVg2jVo1mVA13n5+ex8irPu/q7nU6nsfLu7u5iDeONHKA5IQdoTsgBmhNygOaEHKA5IQdoTsgBmhNygOaEHKA5IQdoTsgBmhNygOYczXpQOeC0sbERK69y/Gpmb28vVt7Lly9j5T3mQaHnz5/Hytvc3IyVt7+/Hyuv8r1VDjjNnJ6exsqrHLOqfJ3KZyp/QzOVo1mfP3+OlVf5PU0mk1jD3N7exvr+vJEDNCfkAM0JOUBzQg7QnJADNCfkAM0JOUBzQg7QnJADNCfkAM0JOUBzQg7QnKNZDyrHmLa3t2PlVQ5ZzVQOP21tbcXKqxzAmk6nsYZZWVmJlffTTz/Fyqs8h/X19Vh54/E41jBHR0ex8s7OzmLlVY5SHR8fx8qrfG8zV1dXsfJOTk5i5VW+v+rf+P3946XVGzlAc0IO0JyQAzQn5ADNCTlAc0IO0JyQAzQn5ADNCTlAc0IO0JyQAzQn5ADNCTlAc64fPhiNRrHyKp85PDyMNcze3l6svOfPn8fKe8zLcLu7u7HyKs+v8nUqV+sqlyNnPn78GCvv+vo6Vl7ld/v333/Hyru4uIg1zNevX2PlVS4mVr4/1w8B+O6EHKA5IQdoTsgBmhNygOaEHKA5IQdoTsgBmhNygOaEHKA5IQdoTsgBmntyR7MWFhZi5T179ixW3vr6eqy8V69exRpme3s7Vl7lOVSOMVW+zszBwUGsvP39/Vh5m5ubsfIqz6Fy9Gnm9PQ0Vl7l73UymcTK++OPP2LlHR0dxRrm/Pw8Vl7l91R5DpXPPDZv5ADNCTlAc0IO0JyQAzQn5ADNCTlAc0IO0JyQAzQn5ADNCTlAc0IO0JyQAzTnaNaD1dXVWHlbW1ux8vb29mINUzmatbS0FCtvfn74/9crR6lmfvnll1h5o9EoVl7l4FHlANZ0Oo01zOXlZay8yt9r5SjVmzdvYuW9f/8+1jCV39PNzU2svMpnbm9vYw1zf/94afVGDtCckAM0J+QAzQk5QHNCDtCckAM0J+QAzQk5QHNCDtCckAM0J+QAzQk5QHNP7mhWxcrKSqy8yiGrnZ2dWMNUPlf5/iqf2d3djTXM77//HiuvcoTo7OwsVt719XWsvMrxq5nxeBwr79u3b7HyKses3r17FyuvcpxrpvL8Ks+ucgDr7u4u1jCVz1UPbXkjB2hOyAGaE3KA5oQcoDkhB2hOyAGaE3KA5oQcoDkhB2hOyAGaE3KA5oQcoDlHsx4sLi7GyltfX4+VVzlKNXNwcBArr/KZra2tWHm//fZbrGEODw9j5VWOEFUOK93c3MTKqxyymqkc9Xr79m2svDdv3sTKe6yDYzOV39NkMomVN51OY+VVD1lVP1fhjRygOSEHaE7IAZoTcoDmhBygOSEHaE7IAZoTcoDmhBygOSEHaE7IAZoTcoDmhBygOdcPH8zPD///2dLSUqy8zc3NWMO8fv06Vl7l0uL+/n6svMpnZirPYm1tLVbe5eVlrLzKZz59+hRrmJOTk1h5Hz58iJX3/v37WHmVi46Vi4QzlUuBlWuYj3mR8DF5IwdoTsgBmhNygOaEHKA5IQdoTsgBmhNygOaEHKA5IQdoTsgBmhNygOaEHKA5R7MezM3NHsMwCwsLsfI2NjZiDbOzsxMrb3d3N1beq1evYuVVf6bV1dVYeV++fImVNx6PY+Xd3NzEyqt8bzOVo1mnp6ex8s7OzmLlVQ9gPZanegCrwhs5QHNCDtCckAM0J+QAzQk5QHNCDtCckAM0J+QAzQk5QHNCDtCckAM0J+QAzTma9YjW19djDTMajWLlVT5TOWS1uLgYa5jK0bHr6+tY39e3b99i5VW/t8oxq8ohsNvb21jfV+UAXZWjWf/PGzlAc0IO0JyQAzQn5ADNCTlAc0IO0JyQAzQn5ADNCTlAc0IO0JyQAzQn5ADNOZr1iFZWVmINUzm2tba2FitvMpnEyru7u4s1TOXIVOVI0vz88HeVynOofGamcsyqcpjq335g6in+TI/JGzlAc0IO0JyQAzQn5ADNCTlAc0IO0JyQAzQn5ADNCTlAc0IO0JyQAzQn5ADNCTlAc64fPqKFhYVYw1Quw1Wu/lW+v+r1w+l0Giuvcu2u8jNVLxnCf4s3coDmhBygOSEHaE7IAZoTcoDmhBygOSEHaE7IAZoTcoDmhBygOSEHaE7IAZpzNAugOW/kAM0JOUBzQg7QnJADNCfkAM0JOUBzQg7QnJADNCfkAM0JOUBzQg7QnJADtPbDD/8HgVsg2MZ6T3EAAAAASUVORK5CYII=;" parent="gt3O8JD9paIEhUvHFo7x-1" vertex="1">
          <mxGeometry x="172" y="330" width="40.22" height="40" as="geometry" />
        </mxCell>
        <mxCell id="X49Vzy6Vr_1fYL4z1RSQ-12" value="Bound&lt;div&gt;Computation&lt;/div&gt;" style="text;html=1;align=center;verticalAlign=middle;resizable=0;points=[];autosize=1;strokeColor=none;fillColor=none;" parent="gt3O8JD9paIEhUvHFo7x-1" vertex="1">
          <mxGeometry y="512" width="90" height="40" as="geometry" />
        </mxCell>
        <mxCell id="uJ9prjp2HtDtiim-bEYf-2" value="$$o_6 - o_8 + o_8&#39; - o_6&#39; \leq \beta_{6,8}^{\varepsilon}$$" style="text;html=1;align=center;verticalAlign=middle;resizable=0;points=[];autosize=1;strokeColor=none;fillColor=none;" parent="gt3O8JD9paIEhUvHFo7x-1" vertex="1">
          <mxGeometry x="414.33" y="530" width="330" height="30" as="geometry" />
        </mxCell>
        <mxCell id="X49Vzy6Vr_1fYL4z1RSQ-7" value="$$I&#39;$$" style="text;html=1;align=center;verticalAlign=middle;resizable=0;points=[];autosize=1;strokeColor=none;fillColor=none;" parent="gt3O8JD9paIEhUvHFo7x-1" vertex="1">
          <mxGeometry x="75" y="612.5" width="60" height="30" as="geometry" />
        </mxCell>
        <mxCell id="sCFTrJq4_meSi-AOqO2O-19" style="edgeStyle=orthogonalEdgeStyle;rounded=0;orthogonalLoop=1;jettySize=auto;html=1;exitX=1;exitY=0.5;exitDx=0;exitDy=0;entryX=0.5;entryY=1;entryDx=0;entryDy=0;" parent="gt3O8JD9paIEhUvHFo7x-1" source="uu8hmrMseBfyl5tihcX9-25" target="sCFTrJq4_meSi-AOqO2O-9" edge="1">
          <mxGeometry relative="1" as="geometry" />
        </mxCell>
        <mxCell id="uu8hmrMseBfyl5tihcX9-25" value="" style="shape=image;imageAspect=0;aspect=fixed;verticalLabelPosition=bottom;verticalAlign=top;image=data:image/png,iVBORw0KGgoAAAANSUhEUgAAAXIAAAFwCAYAAACl7PACAAAAAXNSR0IArs4c6QAAAARnQU1BAACxjwv8YQUAAAAJcEhZcwAAD2EAAA9hAag/p2kAAA2PSURBVHhe7dxLT1yH0obRcL/YzdUQg5zEySj//884I8dxFCMbsGww0NANfLROSd+0dknmpDhrSVHeSQvYkCd7VHM//PDD/cM/ADQ1H/8GoCkhB2hOyAGaE3KA5oQcoDkhB2hOyAGaE3KA5oQcoDkhB2hOyAGaE3KA5oQcoDkhB2hOyAGaE3KA5oQcoDkhB2hOyAGaE3KA5oQcoDkhB2hOyAGam3v45/4/k/91c3OzP4dhKp+ZWVhYiPV9TafTWHn398P/k6g+h8rn7u7uYsF/eCMHaE7IAZoTcoDmhBygOSEHaE7IAZoTcoDmhBygOSEHaE7IAZoTcoDmhBygOSEHaM71wyeqcl1wcXExVl7lMzPVzw31FK8f3t7exsq7vr6OlefKYh/eyAGaE3KA5oQcoDkhB2hOyAGaE3KA5oQcoDkhB2hOyAGaE3KA5oQcoDkhB2jO0awG5ueH//92bW0tVt7S0lKsvNFoFGuYlZWVWHmVQ2CV57C8vBwr7/Pnz7GGqRyzGo/HsfKurq5i5VU+UznoNVP5G68cN6t8pgNv5ADNCTlAc0IO0JyQAzQn5ADNCTlAc0IO0JyQAzQn5ADNCTlAc0IO0JyQAzTnaFZR5cjP4uJirGHW19dj5W1sbMTK297ejpVXOUo1U/lc5dBW5Tnc3d3Fyru4uIg1zPn5eay8L1++xMqbTqex8ipHs6rPoXIIrPIzVY56TSaTWP9e3sgBmhNygOaEHKA5IQdoTsgBmhNygOaEHKA5IQdoTsgBmhNygOaEHKA5IQdoztGsB5UDWAsLC7HyKgecZg4ODmLlra6uxsrb2tqKlVf5OjM7Ozux8irf39LSUqy8y8vLWHnV51D5WicnJ7HyKse5zs7OYuVVvs5M5WeqHPV6rONhM/f3j5dWb+QAzQk5QHNCDtCckAM0J+QAzQk5QHNCDtCckAM0J+QAzQk5QHNCDtCckAM09+SOZlUOYFUOKy0uLsbK293djTXM/v5+rLzKoa3KUa/KIauZ0WgUK+/Zs2exvq+bm5tYeZW/u5nK8bWLi4tYeR8+fIiVd3x8HCuvejTr3bt3sfK+fv0aK6/yu6185rF5IwdoTsgBmhNygOaEHKA5IQdoTsgBmhNygOaEHKA5IQdoTsgBmhNygOaEHKA5IQdo7sldP6xck6tcMqxcTNze3o41zOHhYay8X3/9NVZe5fph9SJh9VkMdXV1FStvOp3Gyqv8Dc2srq7Gyru/H/6f7Onpaay8o6OjWHmVi4kzb9++jZX38ePHWHmTySRWXuV5PzZv5ADNCTlAc0IO0JyQAzQn5ADNCTlAc0IO0JyQAzQn5ADNCTlAc0IO0JyQAzT35I5mVaysrMTKW1tbi5X34sWLWMO8fv06Vt7u7m6svPX19Vh51aNZ8/PD3yHOz89j5Y3H41h5lQNYlWNtM6PRKFbe8vJyrLzKc/jnn39i5VUObc2cnJzEyqsczfr27Vusp8UbOUBzQg7QnJADNCfkAM0JOUBzQg7QnJADNCfkAM0JOUBzQg7QnJADNCfkAM09uaNZc3OzH2mYpaWlWHmbm5ux8g4PD2MN8+OPP8bKqxzNWl1djZVXeXYzlQNYd3d3sfIuLy9j5VWOZlVVnvnGxkasvKurq1h5ld/Rn3/+GWuYytf6/PlzrLwvX77Eyru///cn0hs5QHNCDtCckAM0J+QAzQk5QHNCDtCckAM0J+QAzQk5QHNCDtCckAM0J+QAzT25o1kVKysrsfL29/dj5VWOX81Ujm1VDitVD2BVVI4X3dzcxMpbXl6Olbe1tRUrr3Kca6byt1c5HlZ5dpVDW58+fYo1zPHxcay8yt/Q2dlZrLzpdBrr38sbOUBzQg7QnJADNCfkAM0JOUBzQg7QnJADNCfkAM0JOUBzQg7QnJADNCfkAM0JOUBzrh8+WF1djZVXuUj4888/xxpmb28vVt7i4mKs72t+vvYuULlct7a2Fivv5cuXsfLm5mb/WQxTvX5YuWR4e3sbK288HsfKOz09jZU3mUxiDfP+/ftYeZVLhhcXF7HyKpcjZ+7vHy+t3sgBmhNygOaEHKA5IQdoTsgBmhNygOaEHKA5IQdoTsgBmhNygOaEHKA5IQdoztGsBxsbG7HyKoesqkezKoefRqNRrLzKkZ+vX7/G+v4ODg5i5W1ubsbKqxwcqxxjmqkcZLq6uoqV9/Hjx1h5lcNm1edwdHQUK69yqKzy/VUPgVWOm1V5IwdoTsgBmhNygOaEHKA5IQdoTsgBmhNygOaEHKA5IQdoTsgBmhNygOaEHKA5R7MebG9vx8rb2dmJlVc9mvXq1atYeZWfaTwex8o7Pj6ONUzl+b148SJW3u7ubqy85eXlWHmV41czlcNPJycnsfL++uuvWHmVg2jVo1mVA13n5+ex8irPu/q7nU6nsfLu7u5iDeONHKA5IQdoTsgBmhNygOaEHKA5IQdoTsgBmhNygOaEHKA5IQdoTsgBmhNygOYczXpQOeC0sbERK69y/Gpmb28vVt7Lly9j5T3mQaHnz5/Hytvc3IyVt7+/Hyuv8r1VDjjNnJ6exsqrHLOqfJ3KZyp/QzOVo1mfP3+OlVf5PU0mk1jD3N7exvr+vJEDNCfkAM0JOUBzQg7QnJADNCfkAM0JOUBzQg7QnJADNCfkAM0JOUBzQg7QnKNZDyrHmLa3t2PlVQ5ZzVQOP21tbcXKqxzAmk6nsYZZWVmJlffTTz/Fyqs8h/X19Vh54/E41jBHR0ex8s7OzmLlVY5SHR8fx8qrfG8zV1dXsfJOTk5i5VW+v+rf+P3946XVGzlAc0IO0JyQAzQn5ADNCTlAc0IO0JyQAzQn5ADNCTlAc0IO0JyQAzQn5ADNCTlAc64fPhiNRrHyKp85PDyMNcze3l6svOfPn8fKe8zLcLu7u7HyKs+v8nUqV+sqlyNnPn78GCvv+vo6Vl7ld/v333/Hyru4uIg1zNevX2PlVS4mVr4/1w8B+O6EHKA5IQdoTsgBmhNygOaEHKA5IQdoTsgBmhNygOaEHKA5IQdoTsgBmntyR7MWFhZi5T179ixW3vr6eqy8V69exRpme3s7Vl7lOVSOMVW+zszBwUGsvP39/Vh5m5ubsfIqz6Fy9Gnm9PQ0Vl7l73UymcTK++OPP2LlHR0dxRrm/Pw8Vl7l91R5DpXPPDZv5ADNCTlAc0IO0JyQAzQn5ADNCTlAc0IO0JyQAzQn5ADNCTlAc0IO0JyQAzTnaNaD1dXVWHlbW1ux8vb29mINUzmatbS0FCtvfn74/9crR6lmfvnll1h5o9EoVl7l4FHlANZ0Oo01zOXlZay8yt9r5SjVmzdvYuW9f/8+1jCV39PNzU2svMpnbm9vYw1zf/94afVGDtCckAM0J+QAzQk5QHNCDtCckAM0J+QAzQk5QHNCDtCckAM0J+QAzQk5QHNP7mhWxcrKSqy8yiGrnZ2dWMNUPlf5/iqf2d3djTXM77//HiuvcoTo7OwsVt719XWsvMrxq5nxeBwr79u3b7HyKses3r17FyuvcpxrpvL8Ks+ucgDr7u4u1jCVz1UPbXkjB2hOyAGaE3KA5oQcoDkhB2hOyAGaE3KA5oQcoDkhB2hOyAGaE3KA5oQcoDlHsx4sLi7GyltfX4+VVzlKNXNwcBArr/KZra2tWHm//fZbrGEODw9j5VWOEFUOK93c3MTKqxyymqkc9Xr79m2svDdv3sTKe6yDYzOV39NkMomVN51OY+VVD1lVP1fhjRygOSEHaE7IAZoTcoDmhBygOSEHaE7IAZoTcoDmhBygOSEHaE7IAZoTcoDmhBygOdcPH8zPD///2dLSUqy8zc3NWMO8fv06Vl7l0uL+/n6svMpnZirPYm1tLVbe5eVlrLzKZz59+hRrmJOTk1h5Hz58iJX3/v37WHmVi46Vi4QzlUuBlWuYj3mR8DF5IwdoTsgBmhNygOaEHKA5IQdoTsgBmhNygOaEHKA5IQdoTsgBmhNygOaEHKA5R7MezM3NHsMwCwsLsfI2NjZiDbOzsxMrb3d3N1beq1evYuVVf6bV1dVYeV++fImVNx6PY+Xd3NzEyqt8bzOVo1mnp6ex8s7OzmLlVQ9gPZanegCrwhs5QHNCDtCckAM0J+QAzQk5QHNCDtCckAM0J+QAzQk5QHNCDtCckAM0J+QAzTma9YjW19djDTMajWLlVT5TOWS1uLgYa5jK0bHr6+tY39e3b99i5VW/t8oxq8ohsNvb21jfV+UAXZWjWf/PGzlAc0IO0JyQAzQn5ADNCTlAc0IO0JyQAzQn5ADNCTlAc0IO0JyQAzQn5ADNOZr1iFZWVmINUzm2tba2FitvMpnEyru7u4s1TOXIVOVI0vz88HeVynOofGamcsyqcpjq335g6in+TI/JGzlAc0IO0JyQAzQn5ADNCTlAc0IO0JyQAzQn5ADNCTlAc0IO0JyQAzQn5ADNCTlAc64fPqKFhYVYw1Quw1Wu/lW+v+r1w+l0Giuvcu2u8jNVLxnCf4s3coDmhBygOSEHaE7IAZoTcoDmhBygOSEHaE7IAZoTcoDmhBygOSEHaE7IAZpzNAugOW/kAM0JOUBzQg7QnJADNCfkAM0JOUBzQg7QnJADNCfkAM0JOUBzQg7QnJADtPbDD/8HgVsg2MZ6T3EAAAAASUVORK5CYII=;" parent="gt3O8JD9paIEhUvHFo7x-1" vertex="1">
          <mxGeometry x="118.10999999999996" y="587" width="40.22" height="40" as="geometry" />
        </mxCell>
        <mxCell id="X49Vzy6Vr_1fYL4z1RSQ-1" style="edgeStyle=orthogonalEdgeStyle;rounded=0;orthogonalLoop=1;jettySize=auto;html=1;exitX=0.5;exitY=1;exitDx=0;exitDy=0;" parent="gt3O8JD9paIEhUvHFo7x-1" source="X49Vzy6Vr_1fYL4z1RSQ-2" target="X49Vzy6Vr_1fYL4z1RSQ-8" edge="1">
          <mxGeometry relative="1" as="geometry" />
        </mxCell>
        <mxCell id="X49Vzy6Vr_1fYL4z1RSQ-2" value="PCA&lt;div&gt;Decoding&lt;/div&gt;" style="shape=trapezoid;perimeter=trapezoidPerimeter;whiteSpace=wrap;html=1;fixedSize=1;rotation=-90;fillColor=#d5e8d4;strokeColor=#82b366;" parent="gt3O8JD9paIEhUvHFo7x-1" vertex="1">
          <mxGeometry x="274.33" y="482" width="90" height="30" as="geometry" />
        </mxCell>
        <mxCell id="X49Vzy6Vr_1fYL4z1RSQ-3" style="edgeStyle=orthogonalEdgeStyle;rounded=0;orthogonalLoop=1;jettySize=auto;html=1;exitX=0.5;exitY=1;exitDx=0;exitDy=0;" parent="gt3O8JD9paIEhUvHFo7x-1" source="X49Vzy6Vr_1fYL4z1RSQ-4" target="X49Vzy6Vr_1fYL4z1RSQ-9" edge="1">
          <mxGeometry relative="1" as="geometry" />
        </mxCell>
        <mxCell id="X49Vzy6Vr_1fYL4z1RSQ-4" value="PCA&lt;div&gt;Decoding&lt;/div&gt;" style="shape=trapezoid;perimeter=trapezoidPerimeter;whiteSpace=wrap;html=1;fixedSize=1;rotation=-90;fillColor=#d5e8d4;strokeColor=#82b366;" parent="gt3O8JD9paIEhUvHFo7x-1" vertex="1">
          <mxGeometry x="274.33" y="587" width="90" height="30" as="geometry" />
        </mxCell>
        <mxCell id="X49Vzy6Vr_1fYL4z1RSQ-5" value="" style="edgeStyle=orthogonalEdgeStyle;rounded=0;orthogonalLoop=1;jettySize=auto;html=1;startArrow=classic;startFill=1;entryX=0.51;entryY=0.096;entryDx=0;entryDy=0;entryPerimeter=0;exitX=0.5;exitY=1;exitDx=0;exitDy=0;" parent="gt3O8JD9paIEhUvHFo7x-1" source="sCFTrJq4_meSi-AOqO2O-4" target="uu8hmrMseBfyl5tihcX9-25" edge="1">
          <mxGeometry relative="1" as="geometry">
            <mxPoint x="135.8842857142858" y="492.5" as="sourcePoint" />
            <mxPoint x="135.90000000000003" y="600.5" as="targetPoint" />
          </mxGeometry>
        </mxCell>
        <mxCell id="X49Vzy6Vr_1fYL4z1RSQ-6" value="&lt;svg style=&quot;vertical-align: 0px;&quot; xmlns:xlink=&quot;http://www.w3.org/1999/xlink&quot; viewBox=&quot;0 -683 504 683&quot; role=&quot;img&quot; height=&quot;1.545ex&quot; width=&quot;1.14ex&quot; xmlns=&quot;http://www.w3.org/2000/svg&quot;&gt;&lt;defs&gt;&lt;path d=&quot;M43 1Q26 1 26 10Q26 12 29 24Q34 43 39 45Q42 46 54 46H60Q120 46 136 53Q137 53 138 54Q143 56 149 77T198 273Q210 318 216 344Q286 624 286 626Q284 630 284 631Q274 637 213 637H193Q184 643 189 662Q193 677 195 680T209 683H213Q285 681 359 681Q481 681 487 683H497Q504 676 504 672T501 655T494 639Q491 637 471 637Q440 637 407 634Q393 631 388 623Q381 609 337 432Q326 385 315 341Q245 65 245 59Q245 52 255 50T307 46H339Q345 38 345 37T342 19Q338 6 332 0H316Q279 2 179 2Q143 2 113 2T65 2T43 1Z&quot; id=&quot;MJX-39-TEX-I-1D43C&quot;&gt;&lt;/path&gt;&lt;/defs&gt;&lt;g transform=&quot;scale(1,-1)&quot; stroke-width=&quot;0&quot; fill=&quot;currentColor&quot; stroke=&quot;currentColor&quot;&gt;&lt;g data-mml-node=&quot;math&quot;&gt;&lt;g data-mml-node=&quot;mi&quot;&gt;&lt;use xlink:href=&quot;#MJX-39-TEX-I-1D43C&quot; data-c=&quot;1D43C&quot;&gt;&lt;/use&gt;&lt;/g&gt;&lt;/g&gt;&lt;/g&gt;&lt;/svg&gt;" style="text;html=1;align=center;verticalAlign=middle;resizable=0;points=[];autosize=1;strokeColor=none;fillColor=none;" parent="gt3O8JD9paIEhUvHFo7x-1" vertex="1">
          <mxGeometry x="88.11000000000001" y="452" width="30" height="30" as="geometry" />
        </mxCell>
        <mxCell id="uJ9prjp2HtDtiim-bEYf-3" style="edgeStyle=orthogonalEdgeStyle;rounded=0;orthogonalLoop=1;jettySize=auto;html=1;exitX=1;exitY=0.5;exitDx=0;exitDy=0;" parent="gt3O8JD9paIEhUvHFo7x-1" source="X49Vzy6Vr_1fYL4z1RSQ-8" edge="1">
          <mxGeometry relative="1" as="geometry">
            <mxPoint x="504.3299999999999" y="497.1428571428571" as="targetPoint" />
          </mxGeometry>
        </mxCell>
        <mxCell id="X49Vzy6Vr_1fYL4z1RSQ-8" value="MNIST DNN" style="rounded=0;whiteSpace=wrap;html=1;fillColor=#dae8fc;strokeColor=#6c8ebf;" parent="gt3O8JD9paIEhUvHFo7x-1" vertex="1">
          <mxGeometry x="384.33" y="477" width="60" height="40" as="geometry" />
        </mxCell>
        <mxCell id="X49Vzy6Vr_1fYL4z1RSQ-9" value="MNIST DNN" style="rounded=0;whiteSpace=wrap;html=1;fillColor=#dae8fc;strokeColor=#6c8ebf;" parent="gt3O8JD9paIEhUvHFo7x-1" vertex="1">
          <mxGeometry x="384.33" y="582" width="60" height="40" as="geometry" />
        </mxCell>
        <mxCell id="X49Vzy6Vr_1fYL4z1RSQ-10" value="&lt;blockquote style=&quot;margin: 0 0 0 40px; border: none; padding: 0px;&quot;&gt;L&lt;sub&gt;1&lt;/sub&gt;-&lt;span style=&quot;background-color: transparent; color: light-dark(rgb(0, 0, 0), rgb(255, 255, 255));&quot;&gt;perturbation&lt;/span&gt;&lt;/blockquote&gt;" style="text;html=1;align=center;verticalAlign=middle;resizable=0;points=[];autosize=1;strokeColor=none;fillColor=none;rotation=-90;" parent="gt3O8JD9paIEhUvHFo7x-1" vertex="1">
          <mxGeometry x="34.999999999999986" y="557" width="140" height="30" as="geometry" />
        </mxCell>
        <mxCell id="uJ9prjp2HtDtiim-bEYf-1" value="" style="edgeStyle=orthogonalEdgeStyle;rounded=0;orthogonalLoop=1;jettySize=auto;html=1;startArrow=classic;startFill=1;" parent="gt3O8JD9paIEhUvHFo7x-1" edge="1">
          <mxGeometry relative="1" as="geometry">
            <mxPoint x="499.03999999999996" y="508" as="sourcePoint" />
            <mxPoint x="499.03999999999996" y="590" as="targetPoint" />
          </mxGeometry>
        </mxCell>
        <mxCell id="sCFTrJq4_meSi-AOqO2O-17" style="edgeStyle=orthogonalEdgeStyle;rounded=0;orthogonalLoop=1;jettySize=auto;html=1;exitX=1;exitY=0.5;exitDx=0;exitDy=0;entryX=0.5;entryY=1;entryDx=0;entryDy=0;" parent="gt3O8JD9paIEhUvHFo7x-1" source="sCFTrJq4_meSi-AOqO2O-4" target="sCFTrJq4_meSi-AOqO2O-8" edge="1">
          <mxGeometry relative="1" as="geometry" />
        </mxCell>
        <mxCell id="sCFTrJq4_meSi-AOqO2O-4" value="" style="shape=image;imageAspect=0;aspect=fixed;verticalLabelPosition=bottom;verticalAlign=top;image=data:image/png,iVBORw0KGgoAAAANSUhEUgAAAXIAAAFxCAYAAABusCOnAAAAAXNSR0IArs4c6QAAAARnQU1BAACxjwv8YQUAAAAJcEhZcwAAD2EAAA9hAag/p2kAAA29SURBVHhe7dxZT5yHsobRmHkwg8FgY1to+yr//9ckkaI4sRWjgMHMY9McWrukc1tfSeakOGtJ0X5vWjRN78ffVb346aefHh7/A6CpqfhfAJoScoDmhBygOSEHaE7IAZoTcoDmhBygOSEHaE7IAZoTcoDmhBygOSEHaE7IAZoTcoDmhBygOSEHaE7IAZoTcoDmhBygOSEHaE7IAZoTcoDmhBygOSEHaO7F438P/538f/fixeTrMEzlNRPT09OxfqzRaBQr7+Fh+P8lqp9D5XXj8TgW/JcncoDmhBygOSEHaE7IAZoTcoDmhBygOSEHaE7IAZoTcoDmhBygOSEHaE7IAZoTcoDmXD98pirXBWdmZmLlVV4zUX3dUM/x+uH9/X2svJubm1h5riz24YkcoDkhB2hOyAGaE3KA5oQcoDkhB2hOyAGaE3KA5oQcoDkhB2hOyAGaE3KA5hzNamBqavi/t4uLi7HyZmdnY+WtrKzEGmZ+fj5WXuUQWOVzmJubi5V3fHwca5jr6+tYeVdXV7Hynuo1lYNeE5XveOW4WeU1HXgiB2hOyAGaE3KA5oQcoDkhB2hOyAGaE3KA5oQcoDkhB2hOyAGaE3KA5oQcoDlHs4oqR35mZmZiDbO0tBQrb3V1NVbeq1evYuVVjlJNVF5XObRV+Rwqh5XOz89jDXN2dhYrr3KgazQaxcqrHM26uLiINUzleFjld6oc9bq7u4v17+WJHKA5IQdoTsgBmhNygOaEHKA5IQdoTsgBmhNygOaEHKA5IQdoTsgBmhNygOYczXpUOYA1PT0dK69ywGliZ2cnVl7l0Nba2lqsvIWFhVjDbGxsxMqrvL/Z2dlYeZeXl7HyKge9Jio/6+joKFZe5TjXyclJrLzKz5n49u1brLzKUa+nOh42UTm+VuWJHKA5IQdoTsgBmhNygOaEHKA5IQdoTsgBmhNygOaEHKA5IQdoTsgBmhNygOae3dGsygGsymGlmZmZWHmvX7+ONczW1lasvHfv3sXKqxz1Wl9fjzXMy5cvY+UtLy/H+rFub29j5VW+dxOV11UObe3t7cXKOzg4iJV3enoaa5g///wzVl7lqFflb1t5zVPzRA7QnJADNCfkAM0JOUBzQg7QnJADNCfkAM0JOUBzQg7QnJADNCfkAM0JOUBzQg7Q3LO7fjg9PR0rr3LJsHIxcWNjI9YwlUuGHz9+jJW3trYWK696kbDysx4ehn9Vr6+vY+WNRqNYeZXv0MTCwkKsvMrncHR0FCuvcjFxf38/1jB//PFHrLzKz7q7u4uVNx6PY/17eSIHaE7IAZoTcoDmhBygOSEHaE7IAZoTcoDmhBygOSEHaE7IAZoTcoDmhByguWd3NOvFi8mvNMzc3FysvMXFxVh5r1+/jjVM5QBW5WctLS3Fyqu8ZqLydzo7O4uVVzma9VSH1yZWVlZi5VW+rzc3N7Hy/v7771h5X79+jTXMt2/fYuX9888/sfLOz89jPS+eyAGaE3KA5oQcoDkhB2hOyAGaE3KA5oQcoDkhB2hOyAGaE3KA5oQcoDkhB2jO0axHs7OzsfLW1tZi5b1//z7WMG/fvo2Vt7m5GStvYWEhVl71WNTp6WmsvNFoFCvv6uoqVl7laNbUVO2ZqPKZV757lc+hcmDq06dPsYapfB8ODw9j5R0fH8fKe3j49yfSEzlAc0IO0JyQAzQn5ADNCTlAc0IO0JyQAzQn5ADNCTlAc0IO0JyQAzQn5ADNPbujWRXz8/Ox8t68eRMrr3L8amJnZydW3urqaqy8ubm5WHnj8TjWMJXjRdfX17HyKn/bylGqynubqLy/yhGnu7u7WHmXl5ex8vb392MNU3ld5Tv0VMfanponcoDmhBygOSEHaE7IAZoTcoDmhBygOSEHaE7IAZoTcoDmhBygOSEHaE7IAZoTcoDmXD98tLCwECvv/fv3sfJ2d3djDbO9vR0rb2ZmJta/09HRUay8paWlWHmVz25qavjzTfX6YeV6ZOU1lfdX+Rvd3t7GGubLly+x8irXDy8uLmLlVX+nypXKKk/kAM0JOUBzQg7QnJADNCfkAM0JOUBzQg7QnJADNCfkAM0JOUBzQg7QnJADNOdo1qPV1dVYeVtbW7HyPn78GGuYt2/fxspbXl6OlVc58vP9+/dYP17lc1hbW4uVNz09HSvv6uoq1jB3d3ex8ioHsPb392PlVY5SnZ+fxxpmb28vVt7l5WWsvMr7q/yNJu7v72P9eJ7IAZoTcoDmhBygOSEHaE7IAZoTcoDmhBygOSEHaE7IAZoTcoDmhBygOSEHaM7RrEevXr2KlbexsRErb3d3N9YwlddVjkVVjjEdHBzEGmZ9fT1W3uvXr2PlbW5uxsqbm5uLlVc9rFQ5tnV4eBgr7/Pnz7HyTk5OYuVVj2ZVDnSdnZ3Fyru4uIiVd3t7G2uY0WgUK288HscaxhM5QHNCDtCckAM0J+QAzQk5QHNCDtCckAM0J+QAzQk5QHNCDtCckAM0J+QAzTma9ahyAGt1dTVW3ocPH2INs7W1FSvv7du3sfIuLy9j5VUPCi0vL8fKW1lZiZX35s2bWHmV91b57CYqB7BOT09j5R0dHcXKq7y36tGsyoGuyu9U+eyqB9Hu7+9j/XieyAGaE3KA5oQcoDkhB2hOyAGaE3KA5oQcoDkhB2hOyAGaE3KA5oQcoDkhB2jO0axHa2trsfI2Nzdj5VUOWU1sb2/Hyqv8Tjc3N7HyRqNRrGFmZ2dj5e3u7sbKW19fj5W3tLQUK6/y2U3s7e3Fyjs7O4uVd3x8HCvv4OAgVl7lvU1cXFzEyvv27VusvMrRrOp3/OHh6dLqiRygOSEHaE7IAZoTcoDmhBygOSEHaE7IAZoTcoDmhBygOSEHaE7IAZoTcoDmhBygOdcPH62srMTKq7zm3bt3sYapXE2sXPA7OTmJlVe9DLexsRErb2dnJ1be1tZWrLzxeBwr7+7uLtYw+/v7sfIqlxYrV/++fPkSK+/y8jLWMN+/f4+Vd3V1FSuvcmXR9UMAfjghB2hOyAGaE3KA5oQcoDkhB2hOyAGaE3KA5oQcoDkhB2hOyAGaE3KA5p7d0azp6elYecvLy7HyKkepPnz4EGuYyoGpyudwfX0dK6/ycyYqh8AqB7DW19dj5VU+h7Ozs1jDHB4exsqrHGy7vb2Nlffrr7/Gytvb24s1TOWoV+V4WOW4WfUg2lPyRA7QnJADNCfkAM0JOUBzQg7QnJADNCfkAM0JOUBzQg7QnJADNCfkAM0JOUBzz+5o1tTU8H+bFhcXY+W9evUqVt729nasYSo/a2ZmJlbeixeTr8Mwa2trsYbZ3d2Nlffy5ctYeaPRKFZe5YDT/f19rGEuLi5i5VWOvJ2cnMTK++WXX2Llff78OdYwlaNeT/Wa6t/24eHp0uqJHKA5IQdoTsgBmhNygOaEHKA5IQdoTsgBmhNygOaEHKA5IQdoTsgBmhNygOae3dGsivn5+Vh5lUNWm5ubsYap/KyNjY1YeU/1cyZ+/vnnWHnj8ThW3vn5eay8m5ubWHnX19exhqm87uzsLFZe5ZjVp0+fYuVV3tvE5eVlrLzKZ1c5gFX53k1UXlc9tOWJHKA5IQdoTsgBmhNygOaEHKA5IQdoTsgBmhNygOaEHKA5IQdoTsgBmhNygOYczXo0MzMTK29paSlWXuUo1cTOzk6svMprKgew/vOf/8QapvL+KgeFKoeVbm9vY+VdXFzEGqZyZOr333+Plffbb7/Fyjs+Po6VVzk4NlH5O93d3cXKG41GsfKqh6yqr6vwRA7QnJADNCfkAM0JOUBzQg7QnJADNCfkAM0JOUBzQg7QnJADNCfkAM0JOUBzQg7QnOuHj6amhv97Njs7GytvfX091jCVC4OVS4vb29ux8ra2tmINs7a2FitvcXExVt7l5WWsvMpr9vf3Yw1zeHgYK+/r16+x8v76669Yeefn57HyKhcJJyqXAsfjcay8p7xI+JQ8kQM0J+QAzQk5QHNCDtCckAM0J+QAzQk5QHNCDtCckAM0J+QAzQk5QHNCDtCco1mPXryYfAzDTE9Px8pbXV2NNczGxkasvM3NzVh5Hz58iJVXPQQ2NzcXK+/4+DhW3vX1day829vbWHknJyexhjk4OIiVd3R0FCuv8v6qB7CeynM9gFXhiRygOSEHaE7IAZoTcoDmhBygOSEHaE7IAZoTcoDmhBygOSEHaE7IAZoTcoDmHM16QktLS7GGWVlZiZVXec3CwkKsvJmZmVjDVI6O3dzcxPqxzs/PY+VV39vp6WmsvMrPGo1GsX6sygG6Kkez/pcncoDmhBygOSEHaE7IAZoTcoDmhBygOSEHaE7IAZoTcoDmhBygOSEHaE7IAZpzNOsJzc/PxxpmcXExVl7lQNfd3V2svPF4HGuYyuGnypGkynGu29vbWHmVz27i/v4+Vl7lMNW//cDUc/ydnpIncoDmhBygOSEHaE7IAZoTcoDmhBygOSEHaE7IAZoTcoDmhBygOSEHaE7IAZoTcoDmXD98QpVLfBOVy3BTU8P/ja68v+r1w9FoFCvvqa4fVi8Zwv8VT+QAzQk5QHNCDtCckAM0J+QAzQk5QHNCDtCckAM0J+QAzQk5QHNCDtCckAM052gWQHOeyAGaE3KA5oQcoDkhB2hOyAGaE3KA5oQcoDkhB2hOyAGaE3KA5oQcoDkhB2jtp5/+BylDJtrg9xX/AAAAAElFTkSuQmCC;base64,iVBORw0KGgoAAAANSUhEUgAAAXIAAAFwCAYAAACl7PACAAAAAXNSR0IArs4c6QAAAARnQU1BAACxjwv8YQUAAAAJcEhZcwAAD2EAAA9hAag/p2kAAA2PSURBVHhe7dxLT1yH0obRcL/YzdUQg5zEySj//884I8dxFCMbsGww0NANfLROSd+0dknmpDhrSVHeSQvYkCd7VHM//PDD/cM/ADQ1H/8GoCkhB2hOyAGaE3KA5oQcoDkhB2hOyAGaE3KA5oQcoDkhB2hOyAGaE3KA5oQcoDkhB2hOyAGaE3KA5oQcoDkhB2hOyAGaE3KA5oQcoDkhB2hOyAGam3v45/4/k/91c3OzP4dhKp+ZWVhYiPV9TafTWHn398P/k6g+h8rn7u7uYsF/eCMHaE7IAZoTcoDmhBygOSEHaE7IAZoTcoDmhBygOSEHaE7IAZoTcoDmhBygOSEHaM71wyeqcl1wcXExVl7lMzPVzw31FK8f3t7exsq7vr6OlefKYh/eyAGaE3KA5oQcoDkhB2hOyAGaE3KA5oQcoDkhB2hOyAGaE3KA5oQcoDkhB2jO0awG5ueH//92bW0tVt7S0lKsvNFoFGuYlZWVWHmVQ2CV57C8vBwr7/Pnz7GGqRyzGo/HsfKurq5i5VU+UznoNVP5G68cN6t8pgNv5ADNCTlAc0IO0JyQAzQn5ADNCTlAc0IO0JyQAzQn5ADNCTlAc0IO0JyQAzTnaFZR5cjP4uJirGHW19dj5W1sbMTK297ejpVXOUo1U/lc5dBW5Tnc3d3Fyru4uIg1zPn5eay8L1++xMqbTqex8ipHs6rPoXIIrPIzVY56TSaTWP9e3sgBmhNygOaEHKA5IQdoTsgBmhNygOaEHKA5IQdoTsgBmhNygOaEHKA5IQdoztGsB5UDWAsLC7HyKgecZg4ODmLlra6uxsrb2tqKlVf5OjM7Ozux8irf39LSUqy8y8vLWHnV51D5WicnJ7HyKse5zs7OYuVVvs5M5WeqHPV6rONhM/f3j5dWb+QAzQk5QHNCDtCckAM0J+QAzQk5QHNCDtCckAM0J+QAzQk5QHNCDtCckAM09+SOZlUOYFUOKy0uLsbK293djTXM/v5+rLzKoa3KUa/KIauZ0WgUK+/Zs2exvq+bm5tYeZW/u5nK8bWLi4tYeR8+fIiVd3x8HCuvejTr3bt3sfK+fv0aK6/yu6185rF5IwdoTsgBmhNygOaEHKA5IQdoTsgBmhNygOaEHKA5IQdoTsgBmhNygOaEHKA5IQdo7sldP6xck6tcMqxcTNze3o41zOHhYay8X3/9NVZe5fph9SJh9VkMdXV1FStvOp3Gyqv8Dc2srq7Gyru/H/6f7Onpaay8o6OjWHmVi4kzb9++jZX38ePHWHmTySRWXuV5PzZv5ADNCTlAc0IO0JyQAzQn5ADNCTlAc0IO0JyQAzQn5ADNCTlAc0IO0JyQAzT35I5mVaysrMTKW1tbi5X34sWLWMO8fv06Vt7u7m6svPX19Vh51aNZ8/PD3yHOz89j5Y3H41h5lQNYlWNtM6PRKFbe8vJyrLzKc/jnn39i5VUObc2cnJzEyqsczfr27Vusp8UbOUBzQg7QnJADNCfkAM0JOUBzQg7QnJADNCfkAM0JOUBzQg7QnJADNCfkAM09uaNZc3OzH2mYpaWlWHmbm5ux8g4PD2MN8+OPP8bKqxzNWl1djZVXeXYzlQNYd3d3sfIuLy9j5VWOZlVVnvnGxkasvKurq1h5ld/Rn3/+GWuYytf6/PlzrLwvX77Eyru///cn0hs5QHNCDtCckAM0J+QAzQk5QHNCDtCckAM0J+QAzQk5QHNCDtCckAM0J+QAzT25o1kVKysrsfL29/dj5VWOX81Ujm1VDitVD2BVVI4X3dzcxMpbXl6Olbe1tRUrr3Kca6byt1c5HlZ5dpVDW58+fYo1zPHxcay8yt/Q2dlZrLzpdBrr38sbOUBzQg7QnJADNCfkAM0JOUBzQg7QnJADNCfkAM0JOUBzQg7QnJADNCfkAM0JOUBzrh8+WF1djZVXuUj4888/xxpmb28vVt7i4mKs72t+vvYuULlct7a2Fivv5cuXsfLm5mb/WQxTvX5YuWR4e3sbK288HsfKOz09jZU3mUxiDfP+/ftYeZVLhhcXF7HyKpcjZ+7vHy+t3sgBmhNygOaEHKA5IQdoTsgBmhNygOaEHKA5IQdoTsgBmhNygOaEHKA5IQdoztGsBxsbG7HyKoesqkezKoefRqNRrLzKkZ+vX7/G+v4ODg5i5W1ubsbKqxwcqxxjmqkcZLq6uoqV9/Hjx1h5lcNm1edwdHQUK69yqKzy/VUPgVWOm1V5IwdoTsgBmhNygOaEHKA5IQdoTsgBmhNygOaEHKA5IQdoTsgBmhNygOaEHKA5R7MebG9vx8rb2dmJlVc9mvXq1atYeZWfaTwex8o7Pj6ONUzl+b148SJW3u7ubqy85eXlWHmV41czlcNPJycnsfL++uuvWHmVg2jVo1mVA13n5+ex8irPu/q7nU6nsfLu7u5iDeONHKA5IQdoTsgBmhNygOaEHKA5IQdoTsgBmhNygOaEHKA5IQdoTsgBmhNygOYczXpQOeC0sbERK69y/Gpmb28vVt7Lly9j5T3mQaHnz5/Hytvc3IyVt7+/Hyuv8r1VDjjNnJ6exsqrHLOqfJ3KZyp/QzOVo1mfP3+OlVf5PU0mk1jD3N7exvr+vJEDNCfkAM0JOUBzQg7QnJADNCfkAM0JOUBzQg7QnJADNCfkAM0JOUBzQg7QnKNZDyrHmLa3t2PlVQ5ZzVQOP21tbcXKqxzAmk6nsYZZWVmJlffTTz/Fyqs8h/X19Vh54/E41jBHR0ex8s7OzmLlVY5SHR8fx8qrfG8zV1dXsfJOTk5i5VW+v+rf+P3946XVGzlAc0IO0JyQAzQn5ADNCTlAc0IO0JyQAzQn5ADNCTlAc0IO0JyQAzQn5ADNCTlAc64fPhiNRrHyKp85PDyMNcze3l6svOfPn8fKe8zLcLu7u7HyKs+v8nUqV+sqlyNnPn78GCvv+vo6Vl7ld/v333/Hyru4uIg1zNevX2PlVS4mVr4/1w8B+O6EHKA5IQdoTsgBmhNygOaEHKA5IQdoTsgBmhNygOaEHKA5IQdoTsgBmntyR7MWFhZi5T179ixW3vr6eqy8V69exRpme3s7Vl7lOVSOMVW+zszBwUGsvP39/Vh5m5ubsfIqz6Fy9Gnm9PQ0Vl7l73UymcTK++OPP2LlHR0dxRrm/Pw8Vl7l91R5DpXPPDZv5ADNCTlAc0IO0JyQAzQn5ADNCTlAc0IO0JyQAzQn5ADNCTlAc0IO0JyQAzTnaNaD1dXVWHlbW1ux8vb29mINUzmatbS0FCtvfn74/9crR6lmfvnll1h5o9EoVl7l4FHlANZ0Oo01zOXlZay8yt9r5SjVmzdvYuW9f/8+1jCV39PNzU2svMpnbm9vYw1zf/94afVGDtCckAM0J+QAzQk5QHNCDtCckAM0J+QAzQk5QHNCDtCckAM0J+QAzQk5QHNP7mhWxcrKSqy8yiGrnZ2dWMNUPlf5/iqf2d3djTXM77//HiuvcoTo7OwsVt719XWsvMrxq5nxeBwr79u3b7HyKses3r17FyuvcpxrpvL8Ks+ucgDr7u4u1jCVz1UPbXkjB2hOyAGaE3KA5oQcoDkhB2hOyAGaE3KA5oQcoDkhB2hOyAGaE3KA5oQcoDlHsx4sLi7GyltfX4+VVzlKNXNwcBArr/KZra2tWHm//fZbrGEODw9j5VWOEFUOK93c3MTKqxyymqkc9Xr79m2svDdv3sTKe6yDYzOV39NkMomVN51OY+VVD1lVP1fhjRygOSEHaE7IAZoTcoDmhBygOSEHaE7IAZoTcoDmhBygOSEHaE7IAZoTcoDmhBygOdcPH8zPD///2dLSUqy8zc3NWMO8fv06Vl7l0uL+/n6svMpnZirPYm1tLVbe5eVlrLzKZz59+hRrmJOTk1h5Hz58iJX3/v37WHmVi46Vi4QzlUuBlWuYj3mR8DF5IwdoTsgBmhNygOaEHKA5IQdoTsgBmhNygOaEHKA5IQdoTsgBmhNygOaEHKA5R7MezM3NHsMwCwsLsfI2NjZiDbOzsxMrb3d3N1beq1evYuVVf6bV1dVYeV++fImVNx6PY+Xd3NzEyqt8bzOVo1mnp6ex8s7OzmLlVQ9gPZanegCrwhs5QHNCDtCckAM0J+QAzQk5QHNCDtCckAM0J+QAzQk5QHNCDtCckAM0J+QAzTma9YjW19djDTMajWLlVT5TOWS1uLgYa5jK0bHr6+tY39e3b99i5VW/t8oxq8ohsNvb21jfV+UAXZWjWf/PGzlAc0IO0JyQAzQn5ADNCTlAc0IO0JyQAzQn5ADNCTlAc0IO0JyQAzQn5ADNOZr1iFZWVmINUzm2tba2FitvMpnEyru7u4s1TOXIVOVI0vz88HeVynOofGamcsyqcpjq335g6in+TI/JGzlAc0IO0JyQAzQn5ADNCTlAc0IO0JyQAzQn5ADNCTlAc0IO0JyQAzQn5ADNCTlAc64fPqKFhYVYw1Quw1Wu/lW+v+r1w+l0Giuvcu2u8jNVLxnCf4s3coDmhBygOSEHaE7IAZoTcoDmhBygOSEHaE7IAZoTcoDmhBygOSEHaE7IAZpzNAugOW/kAM0JOUBzQg7QnJADNCfkAM0JOUBzQg7QnJADNCfkAM0JOUBzQg7QnJADtPbDD/8HgVsg2MZ6T3EAAAAASUVORK5CYII=;" parent="gt3O8JD9paIEhUvHFo7x-1" vertex="1">
          <mxGeometry x="118.10999999999996" y="476.5" width="40.11" height="40" as="geometry" />
        </mxCell>
        <mxCell id="sCFTrJq4_meSi-AOqO2O-10" style="edgeStyle=orthogonalEdgeStyle;rounded=0;orthogonalLoop=1;jettySize=auto;html=1;exitX=0.5;exitY=0;exitDx=0;exitDy=0;entryX=0.5;entryY=0;entryDx=0;entryDy=0;" parent="gt3O8JD9paIEhUvHFo7x-1" source="sCFTrJq4_meSi-AOqO2O-8" target="X49Vzy6Vr_1fYL4z1RSQ-2" edge="1">
          <mxGeometry relative="1" as="geometry" />
        </mxCell>
        <mxCell id="sCFTrJq4_meSi-AOqO2O-8" value="PCA&lt;div&gt;Encoding&lt;/div&gt;" style="shape=trapezoid;perimeter=trapezoidPerimeter;whiteSpace=wrap;html=1;fixedSize=1;rotation=90;fillColor=#d5e8d4;strokeColor=#82b366;" parent="gt3O8JD9paIEhUvHFo7x-1" vertex="1">
          <mxGeometry x="174.32999999999998" y="482" width="90" height="30" as="geometry" />
        </mxCell>
        <mxCell id="sCFTrJq4_meSi-AOqO2O-9" value="PCA&lt;div&gt;Encoding&lt;/div&gt;" style="shape=trapezoid;perimeter=trapezoidPerimeter;whiteSpace=wrap;html=1;fixedSize=1;rotation=90;fillColor=#d5e8d4;strokeColor=#82b366;" parent="gt3O8JD9paIEhUvHFo7x-1" vertex="1">
          <mxGeometry x="174.32999999999998" y="592" width="90" height="30" as="geometry" />
        </mxCell>
        <mxCell id="sCFTrJq4_meSi-AOqO2O-11" style="edgeStyle=orthogonalEdgeStyle;rounded=0;orthogonalLoop=1;jettySize=auto;html=1;exitX=0.5;exitY=0;exitDx=0;exitDy=0;entryX=0.443;entryY=0.081;entryDx=0;entryDy=0;entryPerimeter=0;" parent="gt3O8JD9paIEhUvHFo7x-1" source="sCFTrJq4_meSi-AOqO2O-9" target="X49Vzy6Vr_1fYL4z1RSQ-4" edge="1">
          <mxGeometry relative="1" as="geometry" />
        </mxCell>
        <mxCell id="sCFTrJq4_meSi-AOqO2O-12" value="input&amp;nbsp;&lt;div&gt;20 dim&lt;/div&gt;" style="text;html=1;align=center;verticalAlign=middle;resizable=0;points=[];autosize=1;strokeColor=none;fillColor=none;" parent="gt3O8JD9paIEhUvHFo7x-1" vertex="1">
          <mxGeometry x="234.32999999999998" y="452.5" width="60" height="40" as="geometry" />
        </mxCell>
        <mxCell id="sCFTrJq4_meSi-AOqO2O-13" value="input&#39;&lt;div&gt;20 dim&lt;/div&gt;" style="text;html=1;align=center;verticalAlign=middle;resizable=0;points=[];autosize=1;strokeColor=none;fillColor=none;" parent="gt3O8JD9paIEhUvHFo7x-1" vertex="1">
          <mxGeometry x="239.32999999999998" y="570" width="60" height="40" as="geometry" />
        </mxCell>
        <mxCell id="sCFTrJq4_meSi-AOqO2O-15" value="784" style="text;html=1;align=center;verticalAlign=middle;resizable=0;points=[];autosize=1;strokeColor=none;fillColor=none;" parent="gt3O8JD9paIEhUvHFo7x-1" vertex="1">
          <mxGeometry x="158.21999999999997" y="462.5" width="40" height="30" as="geometry" />
        </mxCell>
        <mxCell id="sCFTrJq4_meSi-AOqO2O-16" value="784" style="text;html=1;align=center;verticalAlign=middle;resizable=0;points=[];autosize=1;strokeColor=none;fillColor=none;" parent="gt3O8JD9paIEhUvHFo7x-1" vertex="1">
          <mxGeometry x="151.32999999999998" y="580" width="40" height="30" as="geometry" />
        </mxCell>
        <mxCell id="sCFTrJq4_meSi-AOqO2O-20" value="784" style="text;html=1;align=center;verticalAlign=middle;resizable=0;points=[];autosize=1;strokeColor=none;fillColor=none;" parent="gt3O8JD9paIEhUvHFo7x-1" vertex="1">
          <mxGeometry x="332.33" y="461.5" width="40" height="30" as="geometry" />
        </mxCell>
        <mxCell id="sCFTrJq4_meSi-AOqO2O-21" value="784" style="text;html=1;align=center;verticalAlign=middle;resizable=0;points=[];autosize=1;strokeColor=none;fillColor=none;" parent="gt3O8JD9paIEhUvHFo7x-1" vertex="1">
          <mxGeometry x="332.33" y="576" width="40" height="30" as="geometry" />
        </mxCell>
        <mxCell id="sCFTrJq4_meSi-AOqO2O-22" value="o&lt;sub&gt;6&lt;/sub&gt;&lt;div&gt;&lt;span style=&quot;background-color: transparent; color: light-dark(rgb(0, 0, 0), rgb(255, 255, 255));&quot;&gt;o&lt;sub&gt;8&lt;/sub&gt;&lt;/span&gt;&lt;/div&gt;" style="text;html=1;align=center;verticalAlign=middle;resizable=0;points=[];autosize=1;strokeColor=none;fillColor=none;" parent="gt3O8JD9paIEhUvHFo7x-1" vertex="1">
          <mxGeometry x="453.33" y="471.5" width="40" height="50" as="geometry" />
        </mxCell>
        <mxCell id="sCFTrJq4_meSi-AOqO2O-24" value="o&lt;sub&gt;6&lt;/sub&gt;&#39;&lt;div&gt;&lt;span style=&quot;background-color: transparent; color: light-dark(rgb(0, 0, 0), rgb(255, 255, 255));&quot;&gt;o&lt;sub&gt;8&lt;/sub&gt;&#39;&lt;/span&gt;&lt;/div&gt;" style="text;html=1;align=center;verticalAlign=middle;resizable=0;points=[];autosize=1;strokeColor=none;fillColor=none;" parent="gt3O8JD9paIEhUvHFo7x-1" vertex="1">
          <mxGeometry x="452.33" y="578" width="40" height="50" as="geometry" />
        </mxCell>
        <mxCell id="sCFTrJq4_meSi-AOqO2O-26" value="$$\varepsilon$$" style="text;html=1;align=center;verticalAlign=middle;resizable=0;points=[];autosize=1;strokeColor=none;fillColor=none;" parent="gt3O8JD9paIEhUvHFo7x-1" vertex="1">
          <mxGeometry x="64.99999999999999" y="534" width="110" height="30" as="geometry" />
        </mxCell>
        <mxCell id="IoEXiyeodMCRpfxAuyBm-1" style="edgeStyle=orthogonalEdgeStyle;rounded=0;orthogonalLoop=1;jettySize=auto;html=1;exitX=1.01;exitY=0.53;exitDx=0;exitDy=0;exitPerimeter=0;" edge="1" parent="gt3O8JD9paIEhUvHFo7x-1" source="X49Vzy6Vr_1fYL4z1RSQ-9">
          <mxGeometry relative="1" as="geometry">
            <mxPoint x="504.65999999999997" y="602.8328571428572" as="targetPoint" />
            <mxPoint x="444.33" y="602.69" as="sourcePoint" />
          </mxGeometry>
        </mxCell>
      </root>
    </mxGraphModel>
  </diagram>
  <diagram name="pipe-perturb" id="Cl2e1iX1a-MjyrYOZ5pG">
    <mxGraphModel dx="1293" dy="990" grid="1" gridSize="10" guides="1" tooltips="1" connect="1" arrows="1" fold="1" page="1" pageScale="1" pageWidth="850" pageHeight="1100" math="1" shadow="0">
      <root>
        <mxCell id="vmAbL_y1JBXuyQn4gMuO-0" />
        <mxCell id="vmAbL_y1JBXuyQn4gMuO-1" parent="vmAbL_y1JBXuyQn4gMuO-0" />
        <mxCell id="LRjgwKKnuUKcawJ1o-Lz-0" value="" style="group" vertex="1" connectable="0" parent="vmAbL_y1JBXuyQn4gMuO-1">
          <mxGeometry x="10" y="70" width="840" height="565.365" as="geometry" />
        </mxCell>
        <mxCell id="JMofE5EZ7LCJ6BKNm64P-1" value="$$\Delta \leq \beta^\varepsilon$$" style="text;html=1;align=center;verticalAlign=middle;resizable=0;points=[];autosize=1;strokeColor=none;fillColor=none;" parent="LRjgwKKnuUKcawJ1o-Lz-0" vertex="1">
          <mxGeometry x="640" y="430" width="200" height="30" as="geometry" />
        </mxCell>
        <mxCell id="ZPNV2LpK28YQEISH_Ev0-9" style="edgeStyle=orthogonalEdgeStyle;rounded=0;orthogonalLoop=1;jettySize=auto;html=1;exitX=1;exitY=0.5;exitDx=0;exitDy=0;entryX=0;entryY=0.25;entryDx=0;entryDy=0;fillColor=#f8cecc;strokeColor=#CC0000;" parent="LRjgwKKnuUKcawJ1o-Lz-0" source="vmAbL_y1JBXuyQn4gMuO-3" target="vmAbL_y1JBXuyQn4gMuO-4" edge="1">
          <mxGeometry relative="1" as="geometry">
            <Array as="points">
              <mxPoint x="145" y="40" />
              <mxPoint x="285" y="40" />
            </Array>
          </mxGeometry>
        </mxCell>
        <mxCell id="ZPNV2LpK28YQEISH_Ev0-10" style="edgeStyle=orthogonalEdgeStyle;rounded=0;orthogonalLoop=1;jettySize=auto;html=1;exitX=0.5;exitY=1;exitDx=0;exitDy=0;entryX=0.5;entryY=1;entryDx=0;entryDy=0;" parent="LRjgwKKnuUKcawJ1o-Lz-0" source="vmAbL_y1JBXuyQn4gMuO-3" target="vmAbL_y1JBXuyQn4gMuO-4" edge="1">
          <mxGeometry relative="1" as="geometry">
            <Array as="points">
              <mxPoint x="125" y="103" />
            </Array>
          </mxGeometry>
        </mxCell>
        <mxCell id="vmAbL_y1JBXuyQn4gMuO-3" value="Deformation Training Dataset" style="rounded=0;whiteSpace=wrap;html=1;fillColor=#eeeeee;strokeColor=#36393d;" parent="LRjgwKKnuUKcawJ1o-Lz-0" vertex="1">
          <mxGeometry x="85" y="28" width="80" height="60" as="geometry" />
        </mxCell>
        <mxCell id="DGsAHbPRPBR2guuzycdK-15" style="edgeStyle=orthogonalEdgeStyle;rounded=0;orthogonalLoop=1;jettySize=auto;html=1;exitX=0.5;exitY=0;exitDx=0;exitDy=0;endArrow=none;endFill=0;fillColor=#f8cecc;strokeColor=#CC0000;" parent="LRjgwKKnuUKcawJ1o-Lz-0" source="vmAbL_y1JBXuyQn4gMuO-4" edge="1">
          <mxGeometry relative="1" as="geometry">
            <mxPoint x="375" y="180" as="targetPoint" />
          </mxGeometry>
        </mxCell>
        <mxCell id="vmAbL_y1JBXuyQn4gMuO-4" value="Reduce&lt;div&gt;Deformation&lt;/div&gt;" style="shape=trapezoid;perimeter=trapezoidPerimeter;whiteSpace=wrap;html=1;fixedSize=1;rotation=90;fillColor=#d5e8d4;strokeColor=#82b366;" parent="LRjgwKKnuUKcawJ1o-Lz-0" vertex="1">
          <mxGeometry x="235" y="88" width="90" height="30" as="geometry" />
        </mxCell>
        <mxCell id="vmAbL_y1JBXuyQn4gMuO-7" value="3000" style="text;html=1;align=center;verticalAlign=middle;resizable=0;points=[];autosize=1;strokeColor=none;fillColor=none;" parent="LRjgwKKnuUKcawJ1o-Lz-0" vertex="1">
          <mxGeometry x="212.5" y="118" width="50" height="30" as="geometry" />
        </mxCell>
        <mxCell id="vmAbL_y1JBXuyQn4gMuO-8" value="10" style="text;html=1;align=center;verticalAlign=middle;resizable=0;points=[];autosize=1;strokeColor=none;fillColor=none;" parent="LRjgwKKnuUKcawJ1o-Lz-0" vertex="1">
          <mxGeometry x="285" y="118" width="40" height="30" as="geometry" />
        </mxCell>
        <mxCell id="vmAbL_y1JBXuyQn4gMuO-21" value="&lt;font style=&quot;color: rgb(204, 0, 0);&quot;&gt;Train&amp;nbsp;&lt;/font&gt;&lt;div&gt;&lt;font style=&quot;color: rgb(204, 0, 0);&quot;&gt;PCA&amp;nbsp;&lt;span style=&quot;background-color: transparent;&quot;&gt;Deformation&amp;nbsp;&lt;/span&gt;&lt;/font&gt;&lt;/div&gt;" style="text;html=1;align=center;verticalAlign=middle;resizable=0;points=[];autosize=1;" parent="LRjgwKKnuUKcawJ1o-Lz-0" vertex="1">
          <mxGeometry x="170" width="120" height="40" as="geometry" />
        </mxCell>
        <mxCell id="DGsAHbPRPBR2guuzycdK-9" style="edgeStyle=orthogonalEdgeStyle;rounded=0;orthogonalLoop=1;jettySize=auto;html=1;exitX=1;exitY=0.5;exitDx=0;exitDy=0;entryX=0;entryY=0.25;entryDx=0;entryDy=0;endArrow=classic;endFill=1;fillColor=#f8cecc;strokeColor=#CC0000;" parent="LRjgwKKnuUKcawJ1o-Lz-0" source="DGsAHbPRPBR2guuzycdK-0" target="DGsAHbPRPBR2guuzycdK-1" edge="1">
          <mxGeometry relative="1" as="geometry">
            <Array as="points">
              <mxPoint x="285" y="210" />
            </Array>
          </mxGeometry>
        </mxCell>
        <mxCell id="ZPNV2LpK28YQEISH_Ev0-1" style="edgeStyle=orthogonalEdgeStyle;rounded=0;orthogonalLoop=1;jettySize=auto;html=1;exitX=1;exitY=0.75;exitDx=0;exitDy=0;entryX=1;entryY=0.5;entryDx=0;entryDy=0;fillColor=#f8cecc;strokeColor=#CC0000;" parent="LRjgwKKnuUKcawJ1o-Lz-0" source="DGsAHbPRPBR2guuzycdK-0" target="IvqJLzDHP44ShI30B2PX-3" edge="1">
          <mxGeometry relative="1" as="geometry">
            <Array as="points">
              <mxPoint x="165" y="210" />
              <mxPoint x="225" y="210" />
              <mxPoint x="225" y="320" />
              <mxPoint x="601" y="320" />
            </Array>
          </mxGeometry>
        </mxCell>
        <mxCell id="ZPNV2LpK28YQEISH_Ev0-5" style="edgeStyle=orthogonalEdgeStyle;rounded=0;orthogonalLoop=1;jettySize=auto;html=1;exitX=0.5;exitY=1;exitDx=0;exitDy=0;entryX=0.5;entryY=1;entryDx=0;entryDy=0;" parent="LRjgwKKnuUKcawJ1o-Lz-0" source="DGsAHbPRPBR2guuzycdK-0" target="DGsAHbPRPBR2guuzycdK-1" edge="1">
          <mxGeometry relative="1" as="geometry" />
        </mxCell>
        <mxCell id="DGsAHbPRPBR2guuzycdK-0" value="Plastic Strain Training Dataset" style="rounded=0;whiteSpace=wrap;html=1;fillColor=#eeeeee;strokeColor=#36393d;" parent="LRjgwKKnuUKcawJ1o-Lz-0" vertex="1">
          <mxGeometry x="85" y="180" width="80" height="60" as="geometry" />
        </mxCell>
        <mxCell id="DGsAHbPRPBR2guuzycdK-14" style="edgeStyle=orthogonalEdgeStyle;rounded=0;orthogonalLoop=1;jettySize=auto;html=1;exitX=0.5;exitY=0;exitDx=0;exitDy=0;endArrow=none;endFill=0;fillColor=#f8cecc;strokeColor=#CC0000;" parent="LRjgwKKnuUKcawJ1o-Lz-0" source="DGsAHbPRPBR2guuzycdK-1" edge="1">
          <mxGeometry relative="1" as="geometry">
            <mxPoint x="375" y="170" as="targetPoint" />
          </mxGeometry>
        </mxCell>
        <mxCell id="DGsAHbPRPBR2guuzycdK-1" value="Reduce&amp;nbsp;&lt;div&gt;&lt;span style=&quot;background-color: transparent; color: light-dark(rgb(0, 0, 0), rgb(255, 255, 255));&quot;&gt;Strain&lt;/span&gt;&lt;/div&gt;" style="shape=trapezoid;perimeter=trapezoidPerimeter;whiteSpace=wrap;html=1;fixedSize=1;rotation=90;fillColor=#d5e8d4;strokeColor=#82b366;" parent="LRjgwKKnuUKcawJ1o-Lz-0" vertex="1">
          <mxGeometry x="235" y="250" width="90" height="30" as="geometry" />
        </mxCell>
        <mxCell id="DGsAHbPRPBR2guuzycdK-3" value="3000" style="text;html=1;align=center;verticalAlign=middle;resizable=0;points=[];autosize=1;strokeColor=none;fillColor=none;" parent="LRjgwKKnuUKcawJ1o-Lz-0" vertex="1">
          <mxGeometry x="221.33999999999997" y="230" width="50" height="30" as="geometry" />
        </mxCell>
        <mxCell id="DGsAHbPRPBR2guuzycdK-4" value="26" style="text;html=1;align=center;verticalAlign=middle;resizable=0;points=[];autosize=1;strokeColor=none;fillColor=none;" parent="LRjgwKKnuUKcawJ1o-Lz-0" vertex="1">
          <mxGeometry x="290" y="230" width="40" height="30" as="geometry" />
        </mxCell>
        <mxCell id="DGsAHbPRPBR2guuzycdK-7" value="&lt;font style=&quot;color: rgb(204, 0, 0);&quot;&gt;Train&amp;nbsp;&lt;/font&gt;&lt;div&gt;&lt;font style=&quot;color: rgb(204, 0, 0);&quot;&gt;PCA&amp;nbsp;&lt;span style=&quot;background-color: transparent;&quot;&gt;Strain&amp;nbsp;&lt;/span&gt;&lt;/font&gt;&lt;/div&gt;" style="text;html=1;align=center;verticalAlign=middle;resizable=0;points=[];autosize=1;" parent="LRjgwKKnuUKcawJ1o-Lz-0" vertex="1">
          <mxGeometry x="165" y="170" width="90" height="40" as="geometry" />
        </mxCell>
        <mxCell id="DGsAHbPRPBR2guuzycdK-16" style="edgeStyle=orthogonalEdgeStyle;rounded=0;orthogonalLoop=1;jettySize=auto;html=1;startArrow=classic;startFill=1;endArrow=none;endFill=0;exitX=0.5;exitY=0;exitDx=0;exitDy=0;fillColor=#f8cecc;strokeColor=#CC0000;" parent="LRjgwKKnuUKcawJ1o-Lz-0" source="DGsAHbPRPBR2guuzycdK-12" edge="1">
          <mxGeometry relative="1" as="geometry">
            <mxPoint x="375" y="170" as="targetPoint" />
            <mxPoint x="495" y="170" as="sourcePoint" />
            <Array as="points">
              <mxPoint x="465" y="170" />
            </Array>
          </mxGeometry>
        </mxCell>
        <mxCell id="IvqJLzDHP44ShI30B2PX-4" style="edgeStyle=orthogonalEdgeStyle;rounded=0;orthogonalLoop=1;jettySize=auto;html=1;exitX=1;exitY=0.5;exitDx=0;exitDy=0;entryX=0.5;entryY=0;entryDx=0;entryDy=0;" parent="LRjgwKKnuUKcawJ1o-Lz-0" source="DGsAHbPRPBR2guuzycdK-12" target="IvqJLzDHP44ShI30B2PX-3" edge="1">
          <mxGeometry relative="1" as="geometry" />
        </mxCell>
        <mxCell id="DGsAHbPRPBR2guuzycdK-12" value="Surrogate" style="rounded=0;whiteSpace=wrap;html=1;fillColor=#dae8fc;strokeColor=#6c8ebf;" parent="LRjgwKKnuUKcawJ1o-Lz-0" vertex="1">
          <mxGeometry x="425" y="350" width="80" height="60" as="geometry" />
        </mxCell>
        <mxCell id="DGsAHbPRPBR2guuzycdK-17" value="&lt;font style=&quot;color: rgb(204, 0, 0);&quot;&gt;Train surrogate&lt;/font&gt;" style="text;html=1;align=center;verticalAlign=middle;resizable=0;points=[];autosize=1;strokeColor=none;fillColor=none;" parent="LRjgwKKnuUKcawJ1o-Lz-0" vertex="1">
          <mxGeometry x="378.65" y="140" width="100" height="30" as="geometry" />
        </mxCell>
        <mxCell id="IvqJLzDHP44ShI30B2PX-13" style="edgeStyle=orthogonalEdgeStyle;rounded=0;orthogonalLoop=1;jettySize=auto;html=1;exitX=0.5;exitY=0;exitDx=0;exitDy=0;entryX=0;entryY=0.5;entryDx=0;entryDy=0;" parent="LRjgwKKnuUKcawJ1o-Lz-0" source="IvqJLzDHP44ShI30B2PX-0" target="DGsAHbPRPBR2guuzycdK-12" edge="1">
          <mxGeometry relative="1" as="geometry" />
        </mxCell>
        <mxCell id="IvqJLzDHP44ShI30B2PX-0" value="Reduce&lt;br&gt;&lt;div&gt;Deformation&lt;/div&gt;" style="shape=trapezoid;perimeter=trapezoidPerimeter;whiteSpace=wrap;html=1;fixedSize=1;rotation=90;fillColor=#d5e8d4;strokeColor=#82b366;" parent="LRjgwKKnuUKcawJ1o-Lz-0" vertex="1">
          <mxGeometry x="277.34" y="364.31" width="90" height="30" as="geometry" />
        </mxCell>
        <mxCell id="IvqJLzDHP44ShI30B2PX-14" style="edgeStyle=orthogonalEdgeStyle;rounded=0;orthogonalLoop=1;jettySize=auto;html=1;exitX=0.5;exitY=1;exitDx=0;exitDy=0;" parent="LRjgwKKnuUKcawJ1o-Lz-0" source="IvqJLzDHP44ShI30B2PX-3" edge="1">
          <mxGeometry relative="1" as="geometry">
            <mxPoint x="685" y="379.71428571428567" as="targetPoint" />
          </mxGeometry>
        </mxCell>
        <mxCell id="IvqJLzDHP44ShI30B2PX-3" value="Decode&lt;div&gt;Strain&lt;/div&gt;" style="shape=trapezoid;perimeter=trapezoidPerimeter;whiteSpace=wrap;html=1;fixedSize=1;rotation=-90;fillColor=#d5e8d4;strokeColor=#82b366;" parent="LRjgwKKnuUKcawJ1o-Lz-0" vertex="1">
          <mxGeometry x="550.005" y="365.36499999999995" width="90" height="30" as="geometry" />
        </mxCell>
        <mxCell id="IvqJLzDHP44ShI30B2PX-7" value="Deformation" style="text;html=1;align=center;verticalAlign=middle;resizable=0;points=[];autosize=1;strokeColor=none;fillColor=none;" parent="LRjgwKKnuUKcawJ1o-Lz-0" vertex="1">
          <mxGeometry x="172.5" y="364" width="90" height="30" as="geometry" />
        </mxCell>
        <mxCell id="IvqJLzDHP44ShI30B2PX-8" value="10&amp;nbsp;&lt;div&gt;input dim&lt;/div&gt;" style="text;html=1;align=center;verticalAlign=middle;resizable=0;points=[];autosize=1;strokeColor=none;fillColor=none;" parent="LRjgwKKnuUKcawJ1o-Lz-0" vertex="1">
          <mxGeometry x="340" y="358" width="70" height="40" as="geometry" />
        </mxCell>
        <mxCell id="IvqJLzDHP44ShI30B2PX-15" value="Strain" style="text;html=1;align=center;verticalAlign=middle;resizable=0;points=[];autosize=1;strokeColor=none;fillColor=none;" parent="LRjgwKKnuUKcawJ1o-Lz-0" vertex="1">
          <mxGeometry x="685" y="365" width="50" height="30" as="geometry" />
        </mxCell>
        <mxCell id="IvqJLzDHP44ShI30B2PX-21" value="" style="endArrow=classic;html=1;rounded=0;entryX=0.5;entryY=1;entryDx=0;entryDy=0;" parent="LRjgwKKnuUKcawJ1o-Lz-0" target="IvqJLzDHP44ShI30B2PX-0" edge="1">
          <mxGeometry width="50" height="50" relative="1" as="geometry">
            <mxPoint x="255" y="380" as="sourcePoint" />
            <mxPoint x="271.34000000000003" y="410" as="targetPoint" />
          </mxGeometry>
        </mxCell>
        <mxCell id="IvqJLzDHP44ShI30B2PX-22" value="Training" style="text;html=1;align=center;verticalAlign=middle;whiteSpace=wrap;rounded=0;" parent="LRjgwKKnuUKcawJ1o-Lz-0" vertex="1">
          <mxGeometry y="130" width="60" height="30" as="geometry" />
        </mxCell>
        <mxCell id="IvqJLzDHP44ShI30B2PX-24" style="edgeStyle=orthogonalEdgeStyle;rounded=0;orthogonalLoop=1;jettySize=auto;html=1;exitX=1;exitY=0.5;exitDx=0;exitDy=0;entryX=0.5;entryY=0;entryDx=0;entryDy=0;" parent="LRjgwKKnuUKcawJ1o-Lz-0" source="IvqJLzDHP44ShI30B2PX-25" target="IvqJLzDHP44ShI30B2PX-29" edge="1">
          <mxGeometry relative="1" as="geometry" />
        </mxCell>
        <mxCell id="IvqJLzDHP44ShI30B2PX-25" value="Surrogate" style="rounded=0;whiteSpace=wrap;html=1;fillColor=#dae8fc;strokeColor=#6c8ebf;" parent="LRjgwKKnuUKcawJ1o-Lz-0" vertex="1">
          <mxGeometry x="427.5" y="490" width="80" height="60" as="geometry" />
        </mxCell>
        <mxCell id="IvqJLzDHP44ShI30B2PX-26" style="edgeStyle=orthogonalEdgeStyle;rounded=0;orthogonalLoop=1;jettySize=auto;html=1;exitX=0.5;exitY=0;exitDx=0;exitDy=0;entryX=0;entryY=0.5;entryDx=0;entryDy=0;" parent="LRjgwKKnuUKcawJ1o-Lz-0" source="IvqJLzDHP44ShI30B2PX-27" target="IvqJLzDHP44ShI30B2PX-25" edge="1">
          <mxGeometry relative="1" as="geometry" />
        </mxCell>
        <mxCell id="IvqJLzDHP44ShI30B2PX-27" value="Reduce&lt;div&gt;Deformation&lt;/div&gt;" style="shape=trapezoid;perimeter=trapezoidPerimeter;whiteSpace=wrap;html=1;fixedSize=1;rotation=90;fillColor=#d5e8d4;strokeColor=#82b366;" parent="LRjgwKKnuUKcawJ1o-Lz-0" vertex="1">
          <mxGeometry x="273.84" y="504.31000000000006" width="90" height="30" as="geometry" />
        </mxCell>
        <mxCell id="IvqJLzDHP44ShI30B2PX-28" style="edgeStyle=orthogonalEdgeStyle;rounded=0;orthogonalLoop=1;jettySize=auto;html=1;exitX=0.5;exitY=1;exitDx=0;exitDy=0;" parent="LRjgwKKnuUKcawJ1o-Lz-0" source="IvqJLzDHP44ShI30B2PX-29" edge="1">
          <mxGeometry relative="1" as="geometry">
            <mxPoint x="687.5" y="519.7142857142857" as="targetPoint" />
          </mxGeometry>
        </mxCell>
        <mxCell id="IvqJLzDHP44ShI30B2PX-29" value="Decode&lt;div&gt;Strain&lt;/div&gt;" style="shape=trapezoid;perimeter=trapezoidPerimeter;whiteSpace=wrap;html=1;fixedSize=1;rotation=-90;fillColor=#d5e8d4;strokeColor=#82b366;" parent="LRjgwKKnuUKcawJ1o-Lz-0" vertex="1">
          <mxGeometry x="552.505" y="505.365" width="90" height="30" as="geometry" />
        </mxCell>
        <mxCell id="IvqJLzDHP44ShI30B2PX-30" value="Deformation&#39;" style="text;html=1;align=center;verticalAlign=middle;resizable=0;points=[];autosize=1;strokeColor=none;fillColor=none;" parent="LRjgwKKnuUKcawJ1o-Lz-0" vertex="1">
          <mxGeometry x="175" y="504" width="90" height="30" as="geometry" />
        </mxCell>
        <mxCell id="IvqJLzDHP44ShI30B2PX-31" value="10&amp;nbsp;&lt;div&gt;input′&amp;nbsp;&lt;span style=&quot;background-color: transparent; color: light-dark(rgb(0, 0, 0), rgb(255, 255, 255));&quot;&gt;dim&lt;/span&gt;&lt;/div&gt;" style="text;html=1;align=center;verticalAlign=middle;resizable=0;points=[];autosize=1;strokeColor=none;fillColor=none;" parent="LRjgwKKnuUKcawJ1o-Lz-0" vertex="1">
          <mxGeometry x="342.5" y="498" width="70" height="40" as="geometry" />
        </mxCell>
        <mxCell id="IvqJLzDHP44ShI30B2PX-32" value="Reduced&amp;nbsp;&lt;div&gt;Strain′&lt;/div&gt;" style="text;html=1;align=center;verticalAlign=middle;resizable=0;points=[];autosize=1;strokeColor=none;fillColor=none;" parent="LRjgwKKnuUKcawJ1o-Lz-0" vertex="1">
          <mxGeometry x="507.5" y="501.31000000000006" width="70" height="40" as="geometry" />
        </mxCell>
        <mxCell id="IvqJLzDHP44ShI30B2PX-33" value="Strain&#39;" style="text;html=1;align=center;verticalAlign=middle;resizable=0;points=[];autosize=1;strokeColor=none;fillColor=none;" parent="LRjgwKKnuUKcawJ1o-Lz-0" vertex="1">
          <mxGeometry x="682.5" y="505" width="60" height="30" as="geometry" />
        </mxCell>
        <mxCell id="IvqJLzDHP44ShI30B2PX-34" value="" style="endArrow=classic;html=1;rounded=0;entryX=0.5;entryY=1;entryDx=0;entryDy=0;" parent="LRjgwKKnuUKcawJ1o-Lz-0" target="IvqJLzDHP44ShI30B2PX-27" edge="1">
          <mxGeometry width="50" height="50" relative="1" as="geometry">
            <mxPoint x="257.5" y="520" as="sourcePoint" />
            <mxPoint x="273.84000000000003" y="550" as="targetPoint" />
          </mxGeometry>
        </mxCell>
        <mxCell id="JMofE5EZ7LCJ6BKNm64P-0" value="" style="edgeStyle=orthogonalEdgeStyle;rounded=0;orthogonalLoop=1;jettySize=auto;html=1;startArrow=classic;startFill=1;" parent="LRjgwKKnuUKcawJ1o-Lz-0" edge="1">
          <mxGeometry relative="1" as="geometry">
            <mxPoint x="709.71" y="408" as="sourcePoint" />
            <mxPoint x="709.71" y="490" as="targetPoint" />
          </mxGeometry>
        </mxCell>
        <mxCell id="ZPNV2LpK28YQEISH_Ev0-11" value="Bound Computation" style="text;html=1;align=center;verticalAlign=middle;whiteSpace=wrap;rounded=0;" parent="LRjgwKKnuUKcawJ1o-Lz-0" vertex="1">
          <mxGeometry y="425.5" width="60" height="30" as="geometry" />
        </mxCell>
        <mxCell id="vg0csNjU6iu7ges3p75c-0" value="Reduced&amp;nbsp;&lt;div&gt;Strain&lt;/div&gt;" style="text;html=1;align=center;verticalAlign=middle;resizable=0;points=[];autosize=1;strokeColor=none;fillColor=none;" parent="LRjgwKKnuUKcawJ1o-Lz-0" vertex="1">
          <mxGeometry x="507.5" y="359" width="70" height="40" as="geometry" />
        </mxCell>
        <mxCell id="r6nuPApBdGnb9D6lDGKH-0" value="3000" style="text;html=1;align=center;verticalAlign=middle;resizable=0;points=[];autosize=1;strokeColor=none;fillColor=none;" parent="LRjgwKKnuUKcawJ1o-Lz-0" vertex="1">
          <mxGeometry x="264" y="350" width="50" height="30" as="geometry" />
        </mxCell>
        <mxCell id="r6nuPApBdGnb9D6lDGKH-1" value="3000" style="text;html=1;align=center;verticalAlign=middle;resizable=0;points=[];autosize=1;strokeColor=none;fillColor=none;" parent="LRjgwKKnuUKcawJ1o-Lz-0" vertex="1">
          <mxGeometry x="261" y="490" width="50" height="30" as="geometry" />
        </mxCell>
        <mxCell id="-0a5pDlvDhhXYoox7gZI-0" value="" style="edgeStyle=orthogonalEdgeStyle;rounded=0;orthogonalLoop=1;jettySize=auto;html=1;startArrow=classic;startFill=1;entryX=0.51;entryY=0.096;entryDx=0;entryDy=0;entryPerimeter=0;exitX=0.5;exitY=1;exitDx=0;exitDy=0;" parent="LRjgwKKnuUKcawJ1o-Lz-0" edge="1">
          <mxGeometry relative="1" as="geometry">
            <mxPoint x="227" y="391" as="sourcePoint" />
            <mxPoint x="227" y="504" as="targetPoint" />
          </mxGeometry>
        </mxCell>
        <mxCell id="-0a5pDlvDhhXYoox7gZI-1" value="&lt;blockquote style=&quot;margin: 0 0 0 40px; border: none; padding: 0px;&quot;&gt;L&lt;sub&gt;1&lt;/sub&gt;-&lt;span style=&quot;background-color: transparent; color: light-dark(rgb(0, 0, 0), rgb(255, 255, 255));&quot;&gt;perturbation&lt;/span&gt;&lt;/blockquote&gt;" style="text;html=1;align=center;verticalAlign=middle;resizable=0;points=[];autosize=1;strokeColor=none;fillColor=none;rotation=-90;" parent="LRjgwKKnuUKcawJ1o-Lz-0" vertex="1">
          <mxGeometry x="140" y="455.5" width="140" height="30" as="geometry" />
        </mxCell>
        <mxCell id="-0a5pDlvDhhXYoox7gZI-2" value="$$\varepsilon$$" style="text;html=1;align=center;verticalAlign=middle;resizable=0;points=[];autosize=1;strokeColor=none;fillColor=none;" parent="LRjgwKKnuUKcawJ1o-Lz-0" vertex="1">
          <mxGeometry x="182.5" y="430" width="110" height="30" as="geometry" />
        </mxCell>
        <mxCell id="ph8qoespQY0YCuzI9Vv--0" value="Text" style="text;html=1;align=center;verticalAlign=middle;whiteSpace=wrap;rounded=0;" parent="LRjgwKKnuUKcawJ1o-Lz-0" vertex="1">
          <mxGeometry x="490" y="380" width="60" height="30" as="geometry" />
        </mxCell>
        <mxCell id="ph8qoespQY0YCuzI9Vv--1" value="26" style="text;html=1;align=center;verticalAlign=middle;resizable=0;points=[];autosize=1;strokeColor=none;fillColor=none;" parent="LRjgwKKnuUKcawJ1o-Lz-0" vertex="1">
          <mxGeometry x="550" y="480" width="40" height="30" as="geometry" />
        </mxCell>
        <mxCell id="ph8qoespQY0YCuzI9Vv--2" value="26" style="text;html=1;align=center;verticalAlign=middle;resizable=0;points=[];autosize=1;strokeColor=none;fillColor=none;" parent="LRjgwKKnuUKcawJ1o-Lz-0" vertex="1">
          <mxGeometry x="550" y="335" width="40" height="30" as="geometry" />
        </mxCell>
        <mxCell id="ph8qoespQY0YCuzI9Vv--3" value="&lt;div&gt;3000&lt;/div&gt;" style="text;html=1;align=center;verticalAlign=middle;resizable=0;points=[];autosize=1;strokeColor=none;fillColor=none;" parent="LRjgwKKnuUKcawJ1o-Lz-0" vertex="1">
          <mxGeometry x="615" y="335" width="50" height="30" as="geometry" />
        </mxCell>
        <mxCell id="ph8qoespQY0YCuzI9Vv--4" value="&lt;div&gt;3000&lt;/div&gt;" style="text;html=1;align=center;verticalAlign=middle;resizable=0;points=[];autosize=1;strokeColor=none;fillColor=none;" parent="LRjgwKKnuUKcawJ1o-Lz-0" vertex="1">
          <mxGeometry x="620" y="480" width="50" height="30" as="geometry" />
        </mxCell>
      </root>
    </mxGraphModel>
  </diagram>
</mxfile>
